<svg xmlns="http://www.w3.org/2000/svg" viewBox="0 0 20 20"><defs><style>.cls-1{fill:#f7f7f8;}</style></defs><title>アセット 4</title><g id="レイヤー_2" data-name="レイヤー 2"><g id="さいど"><path class="cls-1" d="M19.45.55A1.77,1.77,0,0,1,20,1.88V18.12A1.88,1.88,0,0,1,18.12,20H1.88a1.77,1.77,0,0,1-1.33-.55A1.77,1.77,0,0,1,0,18.12V1.88A1.77,1.77,0,0,1,.55.55,1.77,1.77,0,0,1,1.88,0H18.12A1.77,1.77,0,0,1,19.45.55ZM14.3,16.11V13.93a4.22,4.22,0,0,1-1.05.51,3.38,3.38,0,0,1-1,.17,2,2,0,0,1-.56-.07,1.81,1.81,0,0,1-.5-.2,1.83,1.83,0,0,1-.3-.27,1.94,1.94,0,0,1-.23-.32,2.34,2.34,0,0,1,0-.54V8.71h3.18V6.25h-3.2V3.07h-2a6.31,6.31,0,0,1-.18,1,5.46,5.46,0,0,1-.3.79,4.22,4.22,0,0,1-.41.65A5.13,5.13,0,0,1,7.19,6a3,3,0,0,1-.73.44c-.28.12-.56.23-.84.32v2H7.5v4.84a6.6,6.6,0,0,0,0,.83A2.35,2.35,0,0,0,7.7,15a1.83,1.83,0,0,0,.27.49,3.18,3.18,0,0,0,.45.45,4.63,4.63,0,0,0,.56.39,3.66,3.66,0,0,0,.67.29,5.91,5.91,0,0,0,.69.18,4.46,4.46,0,0,0,.79.06c.29,0,.56,0,.82,0s.51-.07.75-.12l.75-.24Z"/></g></g></svg>