<svg xmlns="http://www.w3.org/2000/svg" viewBox="0 0 20 20"><defs><style>.cls-1{fill:#f7f7f8;}</style></defs><title>アセット 3</title><g id="レイヤー_2" data-name="レイヤー 2"><g id="さいど"><path class="cls-1" d="M19.45.55A1.77,1.77,0,0,1,20,1.88V18.13A1.88,1.88,0,0,1,18.12,20H12.5V11.25h3.13l.62-2.5H12.5V7.5a1.26,1.26,0,0,1,1.25-1.25h2.5V3.75h-2.5A3.76,3.76,0,0,0,10,7.5V8.75H7.5v2.5H10V20H1.88a1.77,1.77,0,0,1-1.33-.55A1.77,1.77,0,0,1,0,18.13V1.88A1.77,1.77,0,0,1,.55.55,1.77,1.77,0,0,1,1.88,0H18.12A1.77,1.77,0,0,1,19.45.55Z"/></g></g></svg>