<svg xmlns="http://www.w3.org/2000/svg" viewBox="0 0 206.62 107.93"><defs><style>.cls-1{fill:#fff;}.cls-2{fill:#95a9b4;}.cls-3{fill:#48626f;}.cls-4{fill:#231f20;}.cls-5{fill:#00a2d3;}</style></defs><title>Asset 1</title><g id="Layer_2" data-name="Layer 2"><g id="Layer_1-2" data-name="Layer 1"><path class="cls-1" d="M184,15a1.44,1.44,0,1,1,0-2.87H189A1.44,1.44,0,1,1,189,15Z"/><path class="cls-2" d="M64.24,12.87H32a1.36,1.36,0,0,1,.18.67,1.38,1.38,0,0,1-.19.68H64.24a1.33,1.33,0,0,1,0-1.35"/><rect class="cls-2" x="67.42" y="0.88" width="1.35" height="11.22"/><path class="cls-2" d="M182.64,14.22a1.39,1.39,0,0,1-.19-.68,1.4,1.4,0,0,1,.18-.67H72a1.37,1.37,0,0,1,.18.67,1.38,1.38,0,0,1-.18.68Z"/><path class="cls-2" d="M190.54,69a1.32,1.32,0,0,1,0,.35h16.13v-.68H190.5a1.51,1.51,0,0,1,0,.33"/><rect class="cls-3" x="185.82" y="68.55" width="1.35" height="0.59"/><rect class="cls-2" x="185.82" y="14.98" width="1.35" height="36.62"/><path class="cls-2" d="M190.35,12.87a1.36,1.36,0,0,1,.18.67,1.35,1.35,0,0,1-.19.68h16.27V12.87Z"/><rect class="cls-2" x="185.82" y="57.26" width="1.35" height="6.03"/><rect class="cls-2" x="27.84" y="0.88" width="0.68" height="11.22"/><rect class="cls-2" x="185.82" y="70.45" width="1.35" height="16.75"/><path class="cls-2" d="M206.62,88.31H190.49a1.36,1.36,0,0,1,0,.33,1.4,1.4,0,0,1,0,.35h16.13Z"/><rect class="cls-2" x="185.82" y="90.08" width="1.35" height="17.85"/><rect class="cls-2" x="67.42" y="90.08" width="1.35" height="17.85"/><path class="cls-2" d="M24.18,88.31H0V89H24.18a1.42,1.42,0,0,1,0-.35,1.31,1.31,0,0,1,0-.33"/><rect class="cls-2" x="27.84" y="90.08" width="0.68" height="17.85"/><path class="cls-2" d="M67.42,15V68.68H48.13V61.25h-.68v7.43H27.84V69h0V87.2h.68V69.36H47.46V88.31H32.17a1.33,1.33,0,0,1,0,.33,1.26,1.26,0,0,1,0,.34H64.1a1.43,1.43,0,0,1,0-.34,1.32,1.32,0,0,1,0-.33h-16V69.36H67.42V87.21h1.35V15Z"/><polygon class="cls-2" points="48.13 48.73 48.13 48.39 28.51 48.39 28.51 14.97 27.84 14.97 27.84 48.73 27.84 48.73 27.84 49.07 47.46 49.07 47.46 56.57 48.13 56.57 48.13 48.73"/><path class="cls-2" d="M161,89H182.5a1.33,1.33,0,0,1,0-.34,1.39,1.39,0,0,1,0-.33H161a1.39,1.39,0,0,1,0,.33,1.41,1.41,0,0,1,0,.34"/><path class="cls-2" d="M24.32,12.87H0v1.35H24.32a1.39,1.39,0,0,1-.18-.68,1.37,1.37,0,0,1,.18-.67"/><polygon class="cls-3" points="176.89 6.92 180.74 4.69 179.98 7.51 180.65 7.12 181.51 3.91 178.31 3.05 177.63 3.44 180.46 4.19 176.6 6.42 176.89 6.92"/><path class="cls-3" d="M184,15.15V14.8H189a1.26,1.26,0,1,0,0-2.52H184a1.26,1.26,0,1,0,0,2.52v.35a1.61,1.61,0,1,1,0-3.22H189a1.61,1.61,0,1,1,0,3.22Z"/><path class="cls-3" d="M184.86,13.54a.91.91,0,1,0-.91.88.89.89,0,0,0,.91-.88"/><path class="cls-3" d="M190,13.54a.91.91,0,1,0-.91.88.89.89,0,0,0,.91-.88"/><path class="cls-3" d="M187.41,13.54a.91.91,0,1,0-.91.88.89.89,0,0,0,.91-.88"/><polygon class="cls-3" points="62.73 100.43 62.73 104.88 60.68 102.82 60.68 103.6 63.03 105.95 65.37 103.6 65.37 102.83 63.31 104.89 63.31 100.43 62.73 100.43"/><polygon class="cls-3" points="7.56 54.19 3.11 54.19 5.18 52.13 4.4 52.13 2.05 54.48 4.39 56.82 5.17 56.82 3.11 54.77 7.56 54.76 7.56 54.19"/><path class="cls-3" d="M190.13,19.65l-.77.15a.74.74,0,0,0-.08-.21,6.64,6.64,0,0,0,1.56-.43l.25.21s0,0-.08,0a4.3,4.3,0,0,1-.62.2v.8h.7v.26h-.7v.24c.17.16.59.58.69.7l-.17.22c-.1-.14-.34-.41-.52-.62v1.75h-.26V21a4.58,4.58,0,0,1-.75,1.27,1.15,1.15,0,0,0-.16-.25,4.37,4.37,0,0,0,.83-1.43h-.77v-.26h.85Zm1.13,0h1.58v3.18h-.28V22.5h-1v.32h-.27Zm.27,2.63h1V19.87h-1Z"/><path class="cls-3" d="M195.45,19.18s0,.05-.09.06a5.18,5.18,0,0,0,1.78,1.42,1,1,0,0,0-.18.23,5.7,5.7,0,0,1-1.77-1.45,5.21,5.21,0,0,1-1.73,1.49,1.34,1.34,0,0,0-.17-.21A4.75,4.75,0,0,0,195,19.15ZM194,22.94V21.29h2.5v1.65h-.28v-.17h-2v.17Zm.21-2.43h2.08v.25h-2.08Zm2,1h-2v1h2Z"/><rect class="cls-3" x="197.57" y="19.49" width="0.34" height="3.09"/><path class="cls-3" d="M198.5,22.38a.24.24,0,0,1,.24-.26.24.24,0,0,1,.24.26.24.24,0,1,1-.48,0"/><path class="cls-3" d="M201.52,22.49a2,2,0,0,1-.78.14,1.4,1.4,0,0,1-1.44-1.56,1.48,1.48,0,0,1,1.53-1.62,1.52,1.52,0,0,1,.68.13l-.09.28a1.34,1.34,0,0,0-.58-.13,1.16,1.16,0,0,0-1.18,1.33,1.13,1.13,0,0,0,1.16,1.29,1.56,1.56,0,0,0,.62-.12Z"/><path class="cls-3" d="M201.9,22.38a.24.24,0,1,1,.48,0,.24.24,0,0,1-.24.26.24.24,0,0,1-.24-.26"/><path class="cls-3" d="M191.87,24.63l-.61,2.21H191l-.29-1.18a5.91,5.91,0,0,1-.15-.73h0a6.24,6.24,0,0,1-.18.73l-.32,1.19h-.25l-.55-2.21h.26l.27,1.15c.06.28.12.55.16.77h0c0-.22.1-.49.18-.77l.31-1.15h.25l.28,1.15c.06.27.13.53.16.77h0c0-.25.1-.5.17-.77l.3-1.15Z"/><path class="cls-3" d="M193.3,26.47a2.3,2.3,0,0,0,0,.38h-.22l0-.2h0a.55.55,0,0,1-.47.24.44.44,0,0,1-.46-.45c0-.38.33-.59.92-.59,0-.14,0-.44-.36-.44a.69.69,0,0,0-.39.11l-.06-.17a.89.89,0,0,1,.48-.13c.45,0,.56.32.56.63Zm-.24-.44c-.3,0-.67,0-.67.38a.26.26,0,0,0,.28.29.39.39,0,0,0,.4-.37Z"/><path class="cls-3" d="M195.19,25.26c0,.11,0,.24,0,.44v.92c0,.28,0,.91-.76.91a1,1,0,0,1-.5-.12l.07-.19a.87.87,0,0,0,.44.12c.29,0,.51-.15.51-.57v-.19h0a.54.54,0,0,1-.49.27.7.7,0,0,1-.65-.78.74.74,0,0,1,.69-.84.5.5,0,0,1,.48.27h0v-.24Zm-.26.61a.42.42,0,0,0-.42-.45c-.28,0-.47.24-.47.63s.16.6.47.6a.43.43,0,0,0,.42-.47Z"/><path class="cls-3" d="M197.12,26a.75.75,0,0,1-.74.84.73.73,0,0,1-.72-.82.75.75,0,0,1,.74-.84.73.73,0,0,1,.72.82m-.73-.63c-.34,0-.49.34-.49.64s.2.64.48.64.49-.29.49-.64-.14-.64-.48-.64"/><rect class="cls-3" x="198.43" y="24.63" width="0.24" height="2.22"/><path class="cls-3" d="M199.22,26.7a.17.17,0,0,1,.18-.19.19.19,0,1,1-.18.19"/><path class="cls-3" d="M201.52,26.78a1.4,1.4,0,0,1-.55.1,1,1,0,0,1-1-1.12A1.06,1.06,0,0,1,201,24.6a1.1,1.1,0,0,1,.49.09l-.07.2a.92.92,0,0,0-.42-.09.83.83,0,0,0-.85.95.81.81,0,0,0,.83.92,1.14,1.14,0,0,0,.45-.09Z"/><path class="cls-3" d="M201.92,26.7a.17.17,0,1,1,.34,0,.17.17,0,1,1-.34,0"/><path class="cls-3" d="M166.19,10.83a.76.76,0,0,1-.74.84.73.73,0,0,1-.72-.82.75.75,0,0,1,.74-.84.73.73,0,0,1,.72.82m-.73-.63c-.34,0-.49.34-.49.64s.2.64.48.64.49-.29.49-.64-.14-.64-.48-.64"/><path class="cls-3" d="M165.55,7.28h1.72v.26H163.6V7.28h1.68V6.43H164V6.17h1.31V5.57l.36,0s0,0-.08.06v.53h1.37v.25h-1.37ZM167,5.8a2.84,2.84,0,0,0-.29-.3l-2.75.09a.07.07,0,0,1-.06.06l-.09-.33h.64a7.19,7.19,0,0,0,.44-.84h-1.16V4.21h3.51v.26h-1.94s0,0-.09,0a8.87,8.87,0,0,1-.45.79l1.71,0c-.2-.17-.42-.34-.62-.48l.22-.15a6.61,6.61,0,0,1,1.18,1Z"/><path class="cls-3" d="M171.19,5.57a.06.06,0,0,1,0,0,2.91,2.91,0,0,1-.75,1.32,2.5,2.5,0,0,0,1,.55,1.14,1.14,0,0,0-.18.23,2.62,2.62,0,0,1-1-.61,3.27,3.27,0,0,1-1.17.6,1,1,0,0,0-.15-.24A2.92,2.92,0,0,0,170,6.92a3.06,3.06,0,0,1-.6-1.1l.24-.06h-.45V5.52h.86V4.83h-1v0a.1.1,0,0,1-.07,0V7.11h-.22V6.85H168v.42h-.22V4.75l.3,0s0,0-.08.05V6.62h.32V4l.31,0s0,0-.07.05V6.62h.33V4.75l.29,0V4.58h1V3.94l.35,0s0,0-.08.05v.57h1v.25h-1v.69H171Zm-1.52.19a2.7,2.7,0,0,0,.55,1,2.64,2.64,0,0,0,.62-1Z"/><path class="cls-3" d="M175.39,6.75V7h-1.71v.71h-.28V7h-1.69V6.75h1.69V6.39h-1.17V4.34h1c.05-.13.11-.3.14-.41l.36.06s0,0-.08,0l-.13.3h1.28v.89H172.5V5.5h2.56v.89h-1.3s0,0-.08,0v.31Zm-.89-2.19h-2V5h2Zm-2,1.61h2.28V5.73H172.5Z"/><path class="cls-3" d="M163.87,9.76l.24-.08V10h.41v.19h-.41v.92c0,.2.06.31.21.31a.44.44,0,0,0,.17,0v.19a.65.65,0,0,1-.24,0c-.38,0-.4-.35-.4-.52v-.91h-.24V10h.24Z"/><path class="cls-3" d="M168.82,11.54a1.77,1.77,0,0,1-.63.11,1,1,0,0,1-1.07-1.12,1.07,1.07,0,0,1,1.13-1.14,1.25,1.25,0,0,1,.51.09l-.06.2a1,1,0,0,0-.45-.09.83.83,0,0,0-.87.92.82.82,0,0,0,.84.93.79.79,0,0,0,.37-.06v-.71h-.45v-.2h.69Z"/><path class="cls-3" d="M169.36,9.77a.16.16,0,0,1-.16-.17.16.16,0,0,1,.16-.16.17.17,0,0,1,0,.33m.12,1.86h-.24V10h.24Z"/><path class="cls-3" d="M170,10a.87.87,0,0,1,.17-.64.52.52,0,0,1,.37-.14.6.6,0,0,1,.23,0l0,.19a.42.42,0,0,0-.18,0c-.25,0-.31.23-.31.49V10h.38v.19h-.38v1.4H170v-1.4h-.22V10Z"/><path class="cls-3" d="M172.1,11.21c0,.16,0,.3,0,.42h-.22v-.25h0a.57.57,0,0,1-.51.28c-.24,0-.52-.14-.52-.68V10h.24v.89c0,.31.09.52.36.52a.42.42,0,0,0,.41-.43V10h.24Z"/><path class="cls-3" d="M3.94,45.83H5.66v.26H2v-.26H3.66V45H2.34v-.25H3.66v-.61l.36,0s0,0-.08.06v.53H5.32V45H3.94Zm1.42-1.48a3.23,3.23,0,0,0-.29-.3l-2.75.09a.08.08,0,0,1-.07.06l-.09-.33h.63A6.64,6.64,0,0,0,3.23,43H2.07v-.26H5.59V43H3.65s0,0-.09,0a8.27,8.27,0,0,1-.45.8l1.71,0c-.2-.17-.41-.34-.61-.48l.22-.15a6.65,6.65,0,0,1,1.18,1Z"/><path class="cls-3" d="M9.75,44.35H8.24a4.41,4.41,0,0,0,1.55,1.43,1.05,1.05,0,0,0-.21.23A5,5,0,0,1,8,44.47v1.79H7.72V44.48a4.93,4.93,0,0,1-1.54,1.57A2.1,2.1,0,0,0,6,45.82,4.34,4.34,0,0,0,7.5,44.35H6v-.28h1.7V42.5l.37,0s0,.05-.08.06v1.5H9.75ZM6.56,42.74a4,4,0,0,1,.6,1l-.27.12a3.83,3.83,0,0,0-.58-1Zm3,.11s0,0-.09,0a7,7,0,0,1-.62,1l-.24-.11a5.94,5.94,0,0,0,.6-1Z"/><path class="cls-3" d="M13.34,44.88h-1V46c0,.3-.12.31-.79.31a1,1,0,0,0-.08-.24h.38c.2,0,.23,0,.23-.07V44.88h-1V43.44h.8c0-.14.08-.31.12-.46H10.7v.93a5.09,5.09,0,0,1-.43,2.34.85.85,0,0,0-.24-.14,4.69,4.69,0,0,0,.41-2.21V42.73h3.32V43H12.36a4.42,4.42,0,0,1-.15.46h1.13Zm-1.61.33s0,0-.09,0a3.55,3.55,0,0,1-.82.84l-.21-.15a2.93,2.93,0,0,0,.81-.83Zm-.32-1.16h1.67v-.4H11.41Zm0,.61h1.67v-.4H11.41Zm2.19,1.42a4.28,4.28,0,0,0-.84-.85l.21-.14a4.78,4.78,0,0,1,.86.83Z"/><path class="cls-3" d="M2.31,48.31l.24-.08v.37H3v.18H2.55v.92c0,.2.06.31.22.31a.45.45,0,0,0,.16,0v.19a.62.62,0,0,1-.23,0c-.38,0-.4-.35-.4-.52v-.91H2.06V48.6h.24Z"/><path class="cls-3" d="M4.62,49.38a.75.75,0,0,1-.74.84.73.73,0,0,1-.72-.82.75.75,0,0,1,.74-.84.73.73,0,0,1,.72.82m-.73-.63c-.34,0-.49.34-.49.64s.2.63.48.63.49-.28.49-.64-.13-.64-.48-.64"/><path class="cls-3" d="M7.77,50.18H7.52l-.05-1c0-.32,0-.73,0-1h0c-.07.25-.16.52-.27.83l-.4,1.11H6.58l-.37-1.09c-.11-.32-.19-.6-.25-.85H6c0,.27,0,.64,0,1l-.06,1H5.61L5.77,48h.3l.39,1.12c.09.28.17.51.22.74h0c.06-.22.13-.46.23-.74L7.32,48h.3Z"/><path class="cls-3" d="M9.23,49.81a2.26,2.26,0,0,0,0,.38H9L9,50H9a.54.54,0,0,1-.47.24.44.44,0,0,1-.46-.45c0-.38.33-.59.92-.59,0-.13,0-.44-.36-.44a.69.69,0,0,0-.39.11l-.06-.17a.91.91,0,0,1,.48-.13c.45,0,.56.32.56.63ZM9,49.36c-.3,0-.67,0-.67.38a.26.26,0,0,0,.27.29.39.39,0,0,0,.4-.37Z"/><path class="cls-3" d="M9.81,48.32a.16.16,0,0,1-.16-.17A.16.16,0,0,1,9.82,48a.17.17,0,0,1,0,.33m.12,1.86H9.69V48.6h.24Z"/><path class="cls-3" d="M10.66,48.86a.57.57,0,0,1,.52-.29c.38,0,.64.33.64.81s-.35.84-.68.84a.54.54,0,0,1-.51-.29h0v.26H10.4c0-.1,0-.26,0-.39V47.86h.24v1Zm0,.71a.44.44,0,0,0,.44.46c.31,0,.48-.26.48-.64s-.16-.62-.47-.62a.48.48,0,0,0-.45.49Z"/><path class="cls-3" d="M13.23,49.81a2.06,2.06,0,0,0,0,.38H13l0-.2h0a.54.54,0,0,1-.47.24.44.44,0,0,1-.46-.45c0-.38.33-.59.92-.59,0-.13,0-.44-.36-.44a.69.69,0,0,0-.39.11l-.06-.17a.9.9,0,0,1,.48-.13c.45,0,.57.32.57.63ZM13,49.36c-.3,0-.68,0-.68.38a.27.27,0,0,0,.28.29.39.39,0,0,0,.4-.37Z"/><path class="cls-3" d="M14.42,48.8h-.09c-.26,0-.4.26-.4.53v.86H13.7V49.07c0-.17,0-.32,0-.47h.21v.3h0a.47.47,0,0,1,.43-.34h.07Z"/><path class="cls-3" d="M15.74,49.81a2.37,2.37,0,0,0,0,.38h-.22l0-.2h0a.54.54,0,0,1-.47.24.44.44,0,0,1-.46-.45c0-.38.33-.59.92-.59,0-.13,0-.44-.36-.44a.7.7,0,0,0-.39.11l-.06-.17a.91.91,0,0,1,.48-.13c.45,0,.56.32.56.63Zm-.24-.44c-.3,0-.68,0-.68.38a.26.26,0,0,0,.27.29.39.39,0,0,0,.4-.37Z"/><path class="cls-3" d="M72.72,102h1.72v.26H70.76V102h1.68v-.85H71.13v-.26h1.31v-.61l.36,0s0,0-.08.06v.53h1.37v.26H72.72Zm1.42-1.48a2.86,2.86,0,0,0-.29-.3l-2.75.09a.09.09,0,0,1-.07.06l-.09-.33h.63A6.65,6.65,0,0,0,72,99.2H70.85v-.26h3.52v.26H72.43s0,0-.09,0a7.75,7.75,0,0,1-.45.8l1.71,0c-.2-.17-.42-.34-.61-.48l.22-.16a6.8,6.8,0,0,1,1.17,1Z"/><path class="cls-3" d="M78.47,100.14H76.88a2.79,2.79,0,0,0,1.65,2,1.16,1.16,0,0,0-.2.25,3,3,0,0,1-1.67-2A2.78,2.78,0,0,1,75,102.44a1,1,0,0,0-.19-.23,2.56,2.56,0,0,0,1.62-2.07H74.85v-.28h1.61a10.22,10.22,0,0,0,.05-1.19l.38,0s0,.06-.09.07a10,10,0,0,1-.06,1.1h1.71Z"/><path class="cls-3" d="M80.18,101l0,.24-1.24.5a.08.08,0,0,1,0,.07l-.14-.31.58-.2V99.94h-.51v-.26h.51v-1l.35,0s0,0-.08.05v.9h.48v.26h-.48v1.23Zm-.35,1H82.6v.25H79.83Zm2.7-2.87h-2.4V98.9h2.4Zm-.28,2.51H82v-.16H80.71v.18h-.26V99.61h1.8ZM82,99.85H80.71v.57H82Zm-1.28,1.41H82v-.61H80.71Z"/><rect class="cls-3" x="83.09" y="99" width="0.34" height="3.1"/><path class="cls-3" d="M84,101.89a.24.24,0,0,1,.25-.26.26.26,0,1,1-.25.26"/><path class="cls-3" d="M87,102a1.94,1.94,0,0,1-.77.13,1.4,1.4,0,0,1-1.44-1.56A1.48,1.48,0,0,1,86.35,99a1.51,1.51,0,0,1,.68.13l-.09.29a1.31,1.31,0,0,0-.58-.13,1.16,1.16,0,0,0-1.18,1.32,1.13,1.13,0,0,0,1.16,1.29,1.53,1.53,0,0,0,.62-.13Z"/><path class="cls-3" d="M87.42,101.89a.24.24,0,0,1,.24-.26.26.26,0,1,1-.24.26"/><path class="cls-3" d="M71.07,104.49l.24-.08v.37h.41V105h-.41v.91c0,.2.06.31.21.31a.45.45,0,0,0,.16,0l0,.19a.64.64,0,0,1-.24,0c-.38,0-.4-.35-.4-.52V105h-.24v-.19h.24Z"/><path class="cls-3" d="M73.46,105.55a.75.75,0,0,1-.74.84.73.73,0,0,1-.72-.82.75.75,0,0,1,.74-.84.73.73,0,0,1,.72.82m-.73-.63c-.34,0-.48.34-.48.64s.19.64.48.64.49-.29.49-.64-.14-.64-.48-.64"/><path class="cls-3" d="M76.43,105.23c0,.78-.43,1.16-1,1.16s-.94-.43-.94-1.12.41-1.16,1-1.16.93.45.93,1.12m-1.64,0c0,.47.24.93.7.93s.7-.44.7-1-.22-.93-.69-.93-.7.49-.7,1"/><path class="cls-3" d="M78.15,104.77c0,.11,0,.24,0,.44v.92c0,.28,0,.91-.75.91a.94.94,0,0,1-.5-.13l.06-.19a.86.86,0,0,0,.44.12c.29,0,.5-.16.5-.58v-.19h0a.54.54,0,0,1-.49.27.7.7,0,0,1-.65-.78.75.75,0,0,1,.69-.84.5.5,0,0,1,.48.28h0v-.24Zm-.26.61a.43.43,0,0,0-.42-.45c-.28,0-.47.25-.47.63s.16.6.47.6a.43.43,0,0,0,.42-.46Z"/><path class="cls-3" d="M79.72,106a2.43,2.43,0,0,0,0,.38h-.22l0-.2h0a.56.56,0,0,1-.47.24.44.44,0,0,1-.46-.45c0-.38.33-.59.92-.58,0-.13,0-.44-.36-.44a.67.67,0,0,0-.39.12l-.06-.17a.87.87,0,0,1,.48-.14c.45,0,.57.32.57.63Zm-.24-.45c-.3,0-.67,0-.67.38a.26.26,0,0,0,.27.29.39.39,0,0,0,.4-.37Z"/><path class="cls-3" d="M81.49,106.36h-.3l-.55-.78-.15.17v.62h-.24V104h.24v1.48h0l.14-.18.47-.56h.29l-.6.66Z"/><path class="cls-3" d="M81.9,104.5a.16.16,0,0,1-.16-.17.16.16,0,0,1,.16-.16.15.15,0,0,1,.16.16.16.16,0,0,1-.16.17m.12,1.86h-.24v-1.59H82Z"/><rect class="cls-3" x="83.33" y="104.14" width="0.24" height="2.22"/><path class="cls-3" d="M84.07,106.21a.17.17,0,1,1,.35,0,.17.17,0,0,1-.17.18.17.17,0,0,1-.17-.18"/><path class="cls-3" d="M86.31,106.29a1.35,1.35,0,0,1-.55.1,1,1,0,0,1-1-1.12,1.06,1.06,0,0,1,1.09-1.16,1.1,1.1,0,0,1,.49.09l-.06.2a1,1,0,0,0-.42-.09.83.83,0,0,0-.85.95.81.81,0,0,0,.83.93,1.12,1.12,0,0,0,.45-.09Z"/><path class="cls-3" d="M86.66,106.21a.17.17,0,0,1,.18-.19.17.17,0,0,1,.17.19.17.17,0,0,1-.17.18.17.17,0,0,1-.17-.18"/><path class="cls-3" d="M22.08,68.46h-1.7v.45h1.48v2.28c0,.17,0,.25-.17.29a2.8,2.8,0,0,1-.7,0,1.29,1.29,0,0,0-.1-.25h.37c.3,0,.32,0,.32-.1v-2H19v2.36h-.27V68.9h1.43v-.45H18.44V68.2h1.67v-.46l.37,0s0,0-.09.06v.37h1.7Zm-.76,2.26h-.94v.77h-.26v-.77h-.9v-.24h.9V70h-.83V69.8h.45a1.93,1.93,0,0,0-.23-.48l.22-.06a1.86,1.86,0,0,1,.24.48l-.21.07h.92l-.16-.06a3.63,3.63,0,0,0,.25-.5l.3.09a.08.08,0,0,1-.08,0,4.92,4.92,0,0,1-.26.44h.55V70h-.9v.45h.94Z"/><path class="cls-3" d="M22.75,68.1h3.2v3.36h-.29v-.35H23v.37h-.28ZM23,70.84h2.63V68.37H23Z"/><path class="cls-3" d="M14.46,73.49a.74.74,0,0,0-.39-.1c-.31,0-.42.19-.42.35s.13.33.43.45.54.33.54.65-.25.62-.73.62a1,1,0,0,1-.53-.14l.07-.2a.92.92,0,0,0,.48.14c.3,0,.47-.16.47-.4s-.12-.35-.41-.47-.56-.32-.56-.63a.61.61,0,0,1,.68-.58.9.9,0,0,1,.45.1Z"/><path class="cls-3" d="M16.34,74.63a.75.75,0,0,1-.74.84.73.73,0,0,1-.72-.82.75.75,0,0,1,.74-.84.73.73,0,0,1,.72.82M15.61,74c-.34,0-.48.33-.48.64s.19.63.48.63.49-.28.49-.64S16,74,15.61,74"/><path class="cls-3" d="M17.95,75c0,.16,0,.3,0,.42h-.22v-.25h0a.57.57,0,0,1-.51.29c-.24,0-.52-.14-.52-.68v-.94h.24v.89c0,.31.09.52.36.52a.42.42,0,0,0,.41-.43v-1h.24Z"/><path class="cls-3" d="M18.49,73.56l.24-.08v.37h.41V74h-.41V75c0,.2.06.31.21.31l.17,0v.19a.67.67,0,0,1-.24,0c-.38,0-.4-.35-.4-.52V74h-.25v-.19h.25Z"/><path class="cls-3" d="M20.72,75.43h-.24V74.5c0-.26-.09-.48-.37-.48a.43.43,0,0,0-.42.45v1h-.24V73.1h.24v1h0a.58.58,0,0,1,.49-.28c.19,0,.53.12.53.66Z"/><polygon class="cls-3" points="23.05 75.43 21.88 75.43 21.88 73.22 23 73.22 23 73.42 22.12 73.42 22.12 74.17 22.95 74.17 22.95 74.37 22.12 74.37 22.12 75.23 23.05 75.23 23.05 75.43"/><path class="cls-3" d="M24.54,73.85l-.52.77.54.81h-.28L24,75.06l-.17-.29h0c0,.1-.11.18-.17.29l-.23.36h-.27l.55-.81-.52-.77h.27l.23.35.16.27h0A3.09,3.09,0,0,1,24,74.2l.22-.35Z"/><path class="cls-3" d="M24.95,73.57a.17.17,0,0,1,0-.33.17.17,0,0,1,0,.33m.12,1.86h-.24V73.84h.24Z"/><path class="cls-3" d="M25.62,73.56l.24-.08v.37h.41V74h-.41V75c0,.2.06.31.21.31l.16,0v.19a.69.69,0,0,1-.24,0c-.38,0-.39-.35-.39-.52V74h-.25v-.19h.25Z"/><path class="cls-3" d="M0,7.54A3.65,3.65,0,1,0,3.65,3.9,3.65,3.65,0,0,0,0,7.54m.5,0a3.15,3.15,0,1,1,3.15,3.15A3.15,3.15,0,0,1,.5,7.54"/><polygon class="cls-3" points="0.84 9.19 3.65 4.34 6.45 9.19 0.84 9.19"/><path class="cls-3" d="M2.64,3.28V.81h.44L3.86,2c.17.28.31.54.45.78h0c0-.31,0-.63,0-1V.81h.38V3.28H4.25L3.48,2.11c-.17-.26-.33-.55-.47-.81H3c0,.29,0,.61,0,1v1Z"/><path class="cls-3" d="M189,70.63H184a1.61,1.61,0,1,1,0-3.23H189a1.61,1.61,0,1,1,0,3.23M184,67.76a1.26,1.26,0,1,0,0,2.52H189a1.26,1.26,0,1,0,0-2.52Z"/><path class="cls-3" d="M184.86,69a.91.91,0,1,0-.91.87.9.9,0,0,0,.91-.87"/><path class="cls-3" d="M190,69a.91.91,0,1,0-.91.87A.89.89,0,0,0,190,69"/><path class="cls-3" d="M187.41,69a.91.91,0,1,0-.91.87.9.9,0,0,0,.91-.87"/><path class="cls-3" d="M189,90.25H184A1.62,1.62,0,1,1,184,87H189a1.62,1.62,0,1,1,0,3.23M184,87.38a1.26,1.26,0,1,0,0,2.52H189a1.26,1.26,0,1,0,0-2.52Z"/><path class="cls-3" d="M184.86,88.64a.91.91,0,1,0-.91.88.9.9,0,0,0,.91-.88"/><path class="cls-3" d="M190,88.64a.91.91,0,1,0-.91.88.89.89,0,0,0,.91-.88"/><path class="cls-3" d="M187.41,88.64a.91.91,0,1,0-.91.88.9.9,0,0,0,.91-.88"/><path class="cls-3" d="M70.63,90.25H65.56a1.62,1.62,0,1,1,0-3.23h5.06a1.62,1.62,0,1,1,0,3.23m-5.06-2.87a1.26,1.26,0,1,0,0,2.52h5.06a1.26,1.26,0,1,0,0-2.52Z"/><path class="cls-3" d="M66.46,88.64a.91.91,0,1,0-.91.88.89.89,0,0,0,.91-.88"/><path class="cls-3" d="M71.55,88.64a.91.91,0,1,0-.91.88.9.9,0,0,0,.91-.88"/><path class="cls-3" d="M69,88.64a.91.91,0,1,0-.91.88.9.9,0,0,0,.91-.88"/><path class="cls-3" d="M70.63,15.15H65.56a1.61,1.61,0,1,1,0-3.23h5.06a1.61,1.61,0,1,1,0,3.23m-5.06-2.87a1.26,1.26,0,1,0,0,2.52h5.06a1.26,1.26,0,1,0,0-2.52Z"/><path class="cls-3" d="M66.46,13.54a.91.91,0,1,0-.91.87.89.89,0,0,0,.91-.87"/><path class="cls-3" d="M71.55,13.54a.91.91,0,1,0-.91.87.89.89,0,0,0,.91-.87"/><path class="cls-3" d="M69,13.54a.91.91,0,1,0-.91.87.89.89,0,0,0,.91-.87"/><path class="cls-3" d="M30.71,90.25H25.64a1.62,1.62,0,1,1,0-3.23h5.06a1.62,1.62,0,1,1,0,3.23m-5.06-2.87a1.26,1.26,0,1,0,0,2.52h5.06a1.26,1.26,0,1,0,0-2.52Z"/><path class="cls-3" d="M26.54,88.64a.91.91,0,1,0-.91.87.89.89,0,0,0,.91-.87"/><path class="cls-3" d="M31.63,88.64a.91.91,0,1,0-.91.87.89.89,0,0,0,.91-.87"/><path class="cls-3" d="M29.08,88.64a.91.91,0,1,0-.91.87.89.89,0,0,0,.91-.87"/><path class="cls-4" d="M29.08,56.39H27.49a2.79,2.79,0,0,0,1.65,2,1.17,1.17,0,0,0-.2.25,3,3,0,0,1-1.66-2,2.79,2.79,0,0,1-1.68,2.05,1,1,0,0,0-.19-.23A2.58,2.58,0,0,0,27,56.39H25.46v-.28h1.61a11,11,0,0,0,.05-1.19l.38,0s0,.05-.09.07a10.45,10.45,0,0,1-.06,1.1h1.71Z"/><path class="cls-4" d="M30.79,57.23l.05.24L29.6,58a.1.1,0,0,1,0,.07l-.14-.31.57-.2V56.19h-.51v-.26H30V55l.35,0s0,0-.08.05v.9h.48v.26h-.48v1.23Zm-.35,1h2.78v.26H30.44Zm2.7-2.87h-2.4v-.25h2.4Zm-.28,2.51h-.27v-.16H31.32v.18h-.26V55.86h1.8Zm-.27-1.82H31.32v.57h1.28Zm-1.28,1.41h1.28V56.9H31.32Z"/><path class="cls-4" d="M33.84,57.46a2.05,2.05,0,0,1-.23,1l-.16-.09a2,2,0,0,0,.21-.94Zm1.27-.51.13,0V57c-.06,1-.1,1.41-.21,1.53s-.16.11-.34.11h-.26a.61.61,0,0,0-.06-.22h.35c.12,0,.18,0,.23-.59l-.14.06a2.53,2.53,0,0,0-.25-.54l.14-.05a2.83,2.83,0,0,1,.24.51h0c0-.17,0-.39,0-.67H33.93v.11h-.24V55.08h1.52v.24h-.62v.39h.53v.22h-.53v.39h.53v.22h-.53V57h.52Zm-.76-1.63h-.43v.39h.43Zm0,.61h-.43v.39h.43Zm-.43,1h.43v-.41h-.43ZM34,58.27a4,4,0,0,0-.06-.76l.15,0a3.87,3.87,0,0,1,.07.75Zm.39-.84a2.72,2.72,0,0,1,.18.66l-.15,0a2.84,2.84,0,0,0-.17-.67Zm2.72-.69h-.67a2.42,2.42,0,0,0,.86,1.73.85.85,0,0,0-.19.22,2.8,2.8,0,0,1-.92-2h-.41a3.5,3.5,0,0,1-.47,1.95,1.14,1.14,0,0,0-.22-.14,3.27,3.27,0,0,0,.43-1.9V55.08h1.59Zm-.25-1.4H35.79v1.15h1.08Z"/><path class="cls-4" d="M24.86,61.9c0,.57-.27.74-.63.74a.78.78,0,0,1-.27,0l0-.2a.69.69,0,0,0,.22,0c.26,0,.4-.11.4-.55V60.39h.24Z"/><path class="cls-4" d="M26.19,61.55a.55.55,0,0,1,.32.46,3,3,0,0,0,.16.6h-.25a2.85,2.85,0,0,1-.14-.53c-.06-.31-.18-.44-.44-.44h-.27v1h-.24V60.42a2.75,2.75,0,0,1,.5,0,.84.84,0,0,1,.61.18.55.55,0,0,1,.17.41.58.58,0,0,1-.41.57Zm-.34-.1a.45.45,0,0,0,.5-.44c0-.33-.25-.43-.52-.43a1.25,1.25,0,0,0-.27,0v.85Z"/><path class="cls-4" d="M29.45,61.48c0,.78-.44,1.16-1,1.16s-.94-.43-.94-1.12.41-1.16,1-1.16.93.45.93,1.12m-1.65,0c0,.47.25.93.7.93s.7-.44.7-.95-.22-.93-.69-.93-.7.48-.7,1"/><path class="cls-4" d="M31.1,61c0,.11,0,.24,0,.43v.93c0,.28,0,.91-.76.91a.94.94,0,0,1-.5-.13L29.9,63a.87.87,0,0,0,.44.12c.29,0,.5-.15.5-.57v-.19h0a.55.55,0,0,1-.49.27.7.7,0,0,1-.65-.78.75.75,0,0,1,.69-.84.5.5,0,0,1,.48.28h0V61Zm-.26.61a.43.43,0,0,0-.42-.45c-.28,0-.47.25-.47.63s.16.6.47.6a.43.43,0,0,0,.42-.47Z"/><path class="cls-4" d="M32.6,62.23a2.31,2.31,0,0,0,0,.38H32.4l0-.2h0a.55.55,0,0,1-.47.24.44.44,0,0,1-.46-.45c0-.38.33-.59.92-.58,0-.13,0-.44-.36-.44a.68.68,0,0,0-.39.11l-.06-.17A.91.91,0,0,1,32,61c.45,0,.56.32.56.63Zm-.24-.44c-.3,0-.67,0-.67.38a.26.26,0,0,0,.27.29.39.39,0,0,0,.4-.37Z"/><path class="cls-4" d="M34.3,62.6H34l-.54-.78-.15.17v.61h-.24V60.28h.24v1.48h0l.14-.18.47-.56h.29l-.6.65Z"/><path class="cls-4" d="M34.63,60.74a.16.16,0,0,1,0-.33.15.15,0,0,1,.16.16.15.15,0,0,1-.16.17m.12,1.86h-.24V61h.24Z"/><path class="cls-4" d="M36.91,60.66a.73.73,0,0,0-.39-.1c-.31,0-.43.19-.43.35s.13.33.43.45.54.33.54.65-.25.62-.73.62a1,1,0,0,1-.53-.14l.06-.2a.92.92,0,0,0,.48.13c.3,0,.47-.16.47-.4s-.12-.35-.41-.46-.56-.32-.56-.63a.61.61,0,0,1,.68-.58.89.89,0,0,1,.45.1Z"/><path class="cls-4" d="M37.51,60.73l.24-.08V61h.41v.19h-.41v.92c0,.2.06.31.21.31a.42.42,0,0,0,.16,0v.19a.65.65,0,0,1-.23,0c-.38,0-.39-.35-.39-.52v-.91h-.25V61h.25Z"/><path class="cls-4" d="M40.34,62.46a.18.18,0,0,1,.18-.19.19.19,0,1,1-.18.19"/><path class="cls-4" d="M38.55,62.66a1.79,1.79,0,0,0,0-.32v-.9a1.9,1.9,0,0,0,0-.32h.24v.2a.75.75,0,0,1,0,.12.64.64,0,0,1,.59-.35.53.53,0,0,1,.47.21.58.58,0,0,1,.08.33v.71a1.9,1.9,0,0,0,0,.32h-.26a2.25,2.25,0,0,0,0-.32v-.67c0-.26-.13-.4-.36-.4a.51.51,0,0,0-.42.23.61.61,0,0,0-.13.28v.55a2.25,2.25,0,0,0,0,.32Z"/><path class="cls-3" d="M159.58,90.25h-5.07a1.62,1.62,0,1,1,0-3.23h5.07a1.62,1.62,0,1,1,0,3.23m-5.07-2.87a1.26,1.26,0,1,0,0,2.52h5.07a1.26,1.26,0,1,0,0-2.52Z"/><path class="cls-3" d="M155.41,88.64a.91.91,0,1,0-.91.88.9.9,0,0,0,.91-.88"/><path class="cls-3" d="M160.51,88.64a.91.91,0,1,0-.92.88.9.9,0,0,0,.92-.88"/><path class="cls-3" d="M158,88.64a.91.91,0,1,0-.91.88.9.9,0,0,0,.91-.88"/><path class="cls-3" d="M2.33,15.74a.8.8,0,0,1,.57.18.7.7,0,0,1,.2.54.79.79,0,0,1-.06.3.75.75,0,0,1-.15.25.79.79,0,0,1-.23.17.9.9,0,0,1-.29.07h0a.43.43,0,0,1,.29.18.67.67,0,0,1,.08.34,2.76,2.76,0,0,1,0,.3,2.06,2.06,0,0,0,0,.3.81.81,0,0,0,0,.13.25.25,0,0,0,0,.12H2.45a.09.09,0,0,1,0,0,.45.45,0,0,1,0-.09s0-.07,0-.1v-.06a1.89,1.89,0,0,1,0-.26,1.62,1.62,0,0,0,0-.26.59.59,0,0,0-.09-.34A.34.34,0,0,0,2,17.35H1L.75,18.64H.48l.61-2.9Zm-.27,1.38a1.06,1.06,0,0,0,.29,0A.66.66,0,0,0,2.59,17a.56.56,0,0,0,.16-.2.61.61,0,0,0,.06-.28.56.56,0,0,0-.11-.38A.5.5,0,0,0,2.32,16h-1l-.24,1.14Z"/><path class="cls-3" d="M3.7,16.36A.91.91,0,0,1,3.9,16a.89.89,0,0,1,.31-.2,1,1,0,0,1,.39-.07,1,1,0,0,1,.32,0,.79.79,0,0,1,.26.14.72.72,0,0,1,.18.23.76.76,0,0,1,.06.32.81.81,0,0,1-.07.34,1,1,0,0,1-.18.27,1.44,1.44,0,0,1-.26.22l-.31.19-.32.18L4,17.9a1.51,1.51,0,0,0-.26.23.83.83,0,0,0-.17.28H5.13l0,.23H3.25a1,1,0,0,1,.1-.4,1.26,1.26,0,0,1,.22-.31,1.6,1.6,0,0,1,.31-.24l.35-.2.34-.2a2,2,0,0,0,.3-.21,1,1,0,0,0,.21-.25.66.66,0,0,0,.08-.33.48.48,0,0,0,0-.22A.47.47,0,0,0,5,16.11.53.53,0,0,0,4.79,16a.85.85,0,0,0-.22,0,.65.65,0,0,0-.51.23.66.66,0,0,0-.14.24,1,1,0,0,0-.06.29H3.61a1.07,1.07,0,0,1,.08-.39"/><path class="cls-3" d="M6.61,16.24l.25-.1A1,1,0,0,0,7.07,16a1,1,0,0,0,.17-.2h.19l-.61,2.84H6.58l.5-2.36a1.87,1.87,0,0,1-.38.15l-.41.08.06-.2.26-.06"/><path class="cls-3" d="M73.46,19a.8.8,0,0,1-.18.57.69.69,0,0,1-.54.2.83.83,0,0,1-.3-.05.81.81,0,0,1-.24-.16.78.78,0,0,1-.17-.23A.8.8,0,0,1,72,19h0a.4.4,0,0,1-.18.29.66.66,0,0,1-.34.08l-.3,0-.3,0h-.13a.23.23,0,0,0-.12,0V19.1l0,0h.25l.26,0,.26,0a.6.6,0,0,0,.34-.09.35.35,0,0,0,.13-.31v-1l-1.29-.27v-.28l2.9.62Zm-1.38-.27a1.1,1.1,0,0,0,0,.3.71.71,0,0,0,.12.24.52.52,0,0,0,.2.16.61.61,0,0,0,.28.06.56.56,0,0,0,.38-.11.5.5,0,0,0,.13-.38V18l-1.14-.24Z"/><path class="cls-3" d="M72.85,20.36a1,1,0,0,1,.31.2,1,1,0,0,1,.2.31,1.09,1.09,0,0,1,.07.39,1,1,0,0,1,0,.31.78.78,0,0,1-.14.26A.67.67,0,0,1,73,22a.73.73,0,0,1-.32.06.82.82,0,0,1-.34-.07,1,1,0,0,1-.27-.18,1.57,1.57,0,0,1-.22-.26,3.51,3.51,0,0,1-.19-.31l-.18-.32a3.35,3.35,0,0,0-.19-.3,1.48,1.48,0,0,0-.22-.26.83.83,0,0,0-.28-.17v1.59l-.23,0V19.91a1,1,0,0,1,.4.1,1.31,1.31,0,0,1,.31.23,1.57,1.57,0,0,1,.24.31l.21.34.19.34a1.74,1.74,0,0,0,.21.3,1,1,0,0,0,.25.21.68.68,0,0,0,.33.08.51.51,0,0,0,.23,0,.53.53,0,0,0,.16-.13.55.55,0,0,0,.09-.18.77.77,0,0,0,0-.22.67.67,0,0,0-.06-.29.65.65,0,0,0-.16-.22.72.72,0,0,0-.24-.14,1.06,1.06,0,0,0-.29-.06v-.26a1.23,1.23,0,0,1,.39.08"/><path class="cls-3" d="M73.37,24.57l-.23-.06V23.27l-.91-.3h0a.69.69,0,0,1,.17.28,1.08,1.08,0,0,1,.05.34.77.77,0,0,1-.06.33.72.72,0,0,1-.17.25.75.75,0,0,1-.27.16,1,1,0,0,1-.33.06,1.22,1.22,0,0,1-.45-.08,1,1,0,0,1-.58-.57,1.12,1.12,0,0,1-.08-.44,1,1,0,0,1,.06-.36.69.69,0,0,1,.17-.27.74.74,0,0,1,.27-.16.87.87,0,0,1,.36,0v.26a.58.58,0,0,0-.48.14.62.62,0,0,0-.17.47.77.77,0,0,0,.07.33.68.68,0,0,0,.19.25.83.83,0,0,0,.27.17,1,1,0,0,0,.33.05.75.75,0,0,0,.48-.15.58.58,0,0,0,.18-.47.91.91,0,0,0-.07-.36.58.58,0,0,0-.26-.27l0-.23,1.44.46Z"/><path class="cls-3" d="M71,26.77a.91.91,0,0,1-.28-.23,1,1,0,0,1-.17-.32,1.29,1.29,0,0,1-.06-.37,1.16,1.16,0,0,1,.05-.35.91.91,0,0,1,.15-.29A.75.75,0,0,1,71,25a.8.8,0,0,1,.36-.07.78.78,0,0,1,.31.06.81.81,0,0,1,.24.16.76.76,0,0,1,.16.24.9.9,0,0,1,.08.3h0a.56.56,0,0,1,.22-.3.61.61,0,0,1,.35-.11.66.66,0,0,1,.32.07.75.75,0,0,1,.23.19.81.81,0,0,1,.15.27,1,1,0,0,1,.05.32,1.31,1.31,0,0,1,0,.32.75.75,0,0,1-.12.27.58.58,0,0,1-.21.19.62.62,0,0,1-.32.07.7.7,0,0,1-.25,0,.62.62,0,0,1-.2-.12.8.8,0,0,1-.15-.19.87.87,0,0,1-.08-.24h0a.6.6,0,0,1-.25.35.76.76,0,0,1-.42.12.78.78,0,0,1-.38-.09m0-1.52a.5.5,0,0,0-.18.14.63.63,0,0,0-.11.21,1,1,0,0,0,0,.26.87.87,0,0,0,0,.29.71.71,0,0,0,.13.23.6.6,0,0,0,.21.16.68.68,0,0,0,.28.06.59.59,0,0,0,.27-.05.46.46,0,0,0,.17-.15.53.53,0,0,0,.1-.22,1.1,1.1,0,0,0,0-.27.79.79,0,0,0,0-.28.68.68,0,0,0-.13-.22.59.59,0,0,0-.21-.15.7.7,0,0,0-.27-.06.59.59,0,0,0-.26.06m2.13.67a.57.57,0,0,0-.11-.19.52.52,0,0,0-.17-.14.5.5,0,0,0-.23-.05.46.46,0,0,0-.22,0,.42.42,0,0,0-.15.12.55.55,0,0,0-.09.19.89.89,0,0,0,0,.22.75.75,0,0,0,0,.24.56.56,0,0,0,.11.2.51.51,0,0,0,.17.13.54.54,0,0,0,.24.05.47.47,0,0,0,.22,0,.4.4,0,0,0,.15-.12.61.61,0,0,0,.09-.19.9.9,0,0,0,0-.22.68.68,0,0,0,0-.23"/><path class="cls-3" d="M191.39,101.42l-.49-.11h0a1.11,1.11,0,0,1,.37.3.71.71,0,0,1,.14.46v.1a.11.11,0,0,1,0,0l-.25-.06v-.07s0-.05,0-.07a.74.74,0,0,0-.07-.3.7.7,0,0,0-.18-.23.81.81,0,0,0-.25-.16,1.14,1.14,0,0,0-.28-.1l-1.1-.23v-.25l2.1.44Z"/><path class="cls-3" d="M192.11,104.43l-.24-.06v-1.24l-.91-.31h0a.71.71,0,0,1,.17.28,1.11,1.11,0,0,1,.05.34.77.77,0,0,1-.07.33.67.67,0,0,1-.18.25.74.74,0,0,1-.27.16,1,1,0,0,1-.33.05,1.25,1.25,0,0,1-.45-.08,1,1,0,0,1-.58-.56,1.24,1.24,0,0,1-.08-.44,1.1,1.1,0,0,1,.06-.36.7.7,0,0,1,.17-.27.65.65,0,0,1,.27-.17.93.93,0,0,1,.36,0v.26a.58.58,0,0,0-.48.14.63.63,0,0,0-.17.47.77.77,0,0,0,.07.33.75.75,0,0,0,.19.25.78.78,0,0,0,.27.16.83.83,0,0,0,.32.06.75.75,0,0,0,.48-.15.59.59,0,0,0,.18-.47.87.87,0,0,0-.07-.36.56.56,0,0,0-.25-.27l0-.23,1.45.47Z"/><path class="cls-3" d="M189.33,105.23a.72.72,0,0,1,.24-.24,1.12,1.12,0,0,1,.34-.12,2.06,2.06,0,0,1,.39,0l.38,0a2.7,2.7,0,0,1,.42.1,2.58,2.58,0,0,1,.4.17,1.41,1.41,0,0,1,.34.24,1.05,1.05,0,0,1,.24.32.84.84,0,0,1,.09.4.81.81,0,0,1-.08.38.67.67,0,0,1-.22.25,1,1,0,0,1-.32.13,1.78,1.78,0,0,1-.38,0,2.71,2.71,0,0,1-.41,0,3.42,3.42,0,0,1-.43-.09,2.24,2.24,0,0,1-.41-.17,1.49,1.49,0,0,1-.35-.24,1.18,1.18,0,0,1-.24-.33,1,1,0,0,1-.09-.42.75.75,0,0,1,.09-.38m2.15,1.38a.67.67,0,0,0,.24-.09.46.46,0,0,0,.17-.17A.56.56,0,0,0,192,106a.54.54,0,0,0-.09-.31.93.93,0,0,0-.24-.25,1.72,1.72,0,0,0-.34-.19,2.48,2.48,0,0,0-.38-.12l-.37-.07-.31,0-.28,0a.6.6,0,0,0-.24.1.49.49,0,0,0-.17.18.57.57,0,0,0-.06.28.59.59,0,0,0,.09.31.93.93,0,0,0,.24.25,1.37,1.37,0,0,0,.34.18,2.64,2.64,0,0,0,.38.13l.38.07.32,0,.28,0"/><path class="cls-4" d="M148.1,74.13h-.67v1.05h.67a.58.58,0,0,0,.4-.13.53.53,0,0,0,.14-.41.49.49,0,0,0-.14-.4.61.61,0,0,0-.4-.12"/><path class="cls-5" d="M149.88,72.53h-4.2a.68.68,0,0,0-.67.67v4.2a.68.68,0,0,0,.67.67h4.2a.67.67,0,0,0,.67-.67V73.2a.67.67,0,0,0-.67-.67m-.81,3a1.34,1.34,0,0,1-.9.26h-.75v1.29h-.74V73.51h1.54a1.24,1.24,0,0,1,.85.28,1.09,1.09,0,0,1,.31.86,1.12,1.12,0,0,1-.31.89"/><path class="cls-5" d="M148.5,75.06a.58.58,0,0,1-.4.13h-.68V74.13h.68a.6.6,0,0,1,.4.12.49.49,0,0,1,.14.4.52.52,0,0,1-.14.41"/><path class="cls-4" d="M161.31,52.94a5.06,5.06,0,0,1,.71,1.21l-.42.2a4.62,4.62,0,0,0-.68-1.22Zm2.78.07a3.92,3.92,0,0,1-.7,1.95,3.55,3.55,0,0,1-1.76,1.19,2.32,2.32,0,0,0-.28-.37A3,3,0,0,0,163,54.69a3.52,3.52,0,0,0,.61-1.78Z"/><path class="cls-4" d="M167.68,53a3.18,3.18,0,0,1-.7,2,3.43,3.43,0,0,1-1.79,1.08,1.85,1.85,0,0,0-.25-.37,3.25,3.25,0,0,0,1.64-.91,2.56,2.56,0,0,0,.63-1.46H164.6V53Z"/><path class="cls-4" d="M169.21,56.2h-.44V52.73h.44v1.09a7.1,7.1,0,0,1,2,.86l-.22.39a6.1,6.1,0,0,0-1.82-.84Z"/><path class="cls-4" d="M172.42,55v.12c0,.2,0,.34.08.42s.4.13.74.13h.15a10.15,10.15,0,0,0,1.4-.11V56a12.83,12.83,0,0,1-1.48.08c-.65,0-1,0-1.18-.21a1,1,0,0,1-.16-.69V52.8h.43v1.33a6.29,6.29,0,0,0,1-.37,4.61,4.61,0,0,0,.91-.52l.27.36a5.58,5.58,0,0,1-1,.53,7,7,0,0,1-1.17.4Zm3-2.08a.46.46,0,1,1-.46-.46.47.47,0,0,1,.46.46m-.73,0a.26.26,0,0,0,.26.27.26.26,0,0,0,.27-.27.26.26,0,1,0-.53,0"/><path class="cls-4" d="M179,52.94a2.81,2.81,0,0,1-1.21,1.64,1.85,1.85,0,0,0-.3-.31,2.21,2.21,0,0,0,.93-1h-2.78v-.37Zm-1.63.76a3,3,0,0,1-.29,1.62,2.21,2.21,0,0,1-1.16.86,1.58,1.58,0,0,0-.27-.32,1.84,1.84,0,0,0,1.08-.76,2,2,0,0,0,.21-1.12V53.7Z"/><path class="cls-4" d="M179.6,53.82a6.93,6.93,0,0,1,1.21.46l-.19.38a6.3,6.3,0,0,0-1.22-.49Zm-.16,1.86a3.48,3.48,0,0,0,1.8-.52,2.77,2.77,0,0,0,1.13-1.66c.12.11.24.2.36.29a3.18,3.18,0,0,1-1.26,1.72,3.79,3.79,0,0,1-1.91.58Zm.47-2.83a7,7,0,0,1,1.19.47l-.19.37a5.82,5.82,0,0,0-1.19-.48Zm2.14-.21a4.54,4.54,0,0,1,.45.64l-.24.14a5,5,0,0,0-.45-.66Zm.43-.2a4.29,4.29,0,0,1,.44.61l-.24.13a4,4,0,0,0-.43-.64Z"/><path class="cls-4" d="M184.88,56.17l-.37.08-.42-1.79-.69.13-.06-.35.67-.11-.15-.65.37-.07.15.65,1.76-.29a2.2,2.2,0,0,1-.93,1.43,1.85,1.85,0,0,0-.28-.25,2,2,0,0,0,.73-.76l-1.19.21Z"/><path class="cls-4" d="M187.85,53.08a7.67,7.67,0,0,1-.32,1.56,4.64,4.64,0,0,1-.8,1.47,3.54,3.54,0,0,0-.36-.32,4.08,4.08,0,0,0,.75-1.32,6.74,6.74,0,0,0,.29-1.47ZM189.1,53a7.26,7.26,0,0,0,.31,1.49,3.77,3.77,0,0,0,.74,1.29,4.31,4.31,0,0,0-.36.33,5,5,0,0,1-.79-1.45,8.38,8.38,0,0,1-.34-1.58Zm1.13.09a.46.46,0,1,1-.46-.46.46.46,0,0,1,.46.46m-.73,0a.26.26,0,0,0,.26.27.27.27,0,1,0-.26-.27"/><path class="cls-4" d="M190.74,52.95a7.19,7.19,0,0,1,1.17.78l-.3.36a5.44,5.44,0,0,0-1.13-.83Zm-.15,2.68a3.5,3.5,0,0,0,1.81-.68,3,3,0,0,0,1-1.62c.11.12.24.22.35.31a3.27,3.27,0,0,1-1.13,1.66,4.16,4.16,0,0,1-1.91.75Z"/><path class="cls-4" d="M161.69,58.19h.43v1l2.1-.43a3,3,0,0,1-1.14,1.7,2.26,2.26,0,0,0-.35-.24,3,3,0,0,0,.86-1l-1.47.32v.88c0,.26,0,.44.09.54s.37.13.73.13a7.09,7.09,0,0,0,1.2-.11v.42a9.4,9.4,0,0,1-1.26.08c-.59,0-.88-.06-1-.26a1.18,1.18,0,0,1-.15-.71v-.88l-.8.18-.07-.38.87-.18Z"/><path class="cls-4" d="M165,58.35a7.35,7.35,0,0,1,1.17.79l-.29.36a5.5,5.5,0,0,0-1.14-.83ZM164.81,61a3.54,3.54,0,0,0,1.81-.68,3,3,0,0,0,1-1.62A3.68,3.68,0,0,0,168,59a3.29,3.29,0,0,1-1.13,1.66,4.14,4.14,0,0,1-1.92.75Z"/><path class="cls-4" d="M169.72,59.41a5.7,5.7,0,0,1,.89.73,3.06,3.06,0,0,0,.62-1.2h-1.5a3.64,3.64,0,0,1-1,1,2.89,2.89,0,0,0-.32-.28,3,3,0,0,0,1.33-1.59l.42.1c-.06.15-.12.28-.18.41h1.8a3.77,3.77,0,0,1-.95,2,4.19,4.19,0,0,1-1.93,1.1,2.47,2.47,0,0,0-.26-.36,4,4,0,0,0,1.73-.86,5.24,5.24,0,0,0-.87-.75Z"/><rect class="cls-4" x="172.32" y="59.69" width="3.32" height="0.4"/><path class="cls-4" d="M176.94,60.41v.12c0,.2,0,.34.08.42s.4.13.73.13h.16a10.23,10.23,0,0,0,1.4-.11v.42a12.14,12.14,0,0,1-1.47.08c-.65,0-1,0-1.18-.21s-.16-.34-.16-.69V58.22h.43v1.33a6.57,6.57,0,0,0,1-.35,4.5,4.5,0,0,0,.91-.54l.27.36a6.22,6.22,0,0,1-1,.55,7.67,7.67,0,0,1-1.17.38ZM179,58a4,4,0,0,1,.44.65l-.24.13a4.36,4.36,0,0,0-.44-.66Zm.44-.2a4.2,4.2,0,0,1,.42.62l-.24.13a4.1,4.1,0,0,0-.42-.64Z"/><path class="cls-4" d="M181.19,58.28v.62A5.54,5.54,0,0,1,181,60.4a2.49,2.49,0,0,1-.75,1.21,1.56,1.56,0,0,0-.32-.3,2.16,2.16,0,0,0,.67-1,5.05,5.05,0,0,0,.13-1.38v-.61Zm.65-.08h.42V61a2,2,0,0,0,1.16-1.42,3.08,3.08,0,0,0,.35.28,2.46,2.46,0,0,1-1.93,1.72Z"/><path class="cls-4" d="M162.07,64.22a.74.74,0,0,0-.39-.1c-.31,0-.43.19-.43.35s.13.33.43.45.54.33.54.65-.26.62-.73.62a1,1,0,0,1-.53-.14l.07-.2a.91.91,0,0,0,.48.14c.3,0,.47-.16.47-.4s-.11-.35-.41-.47-.56-.32-.56-.63a.61.61,0,0,1,.68-.58.92.92,0,0,1,.45.11Z"/><path class="cls-4" d="M163.87,65.35a.76.76,0,0,1-.74.84.73.73,0,0,1-.72-.82.75.75,0,0,1,.74-.84.73.73,0,0,1,.72.82m-.73-.62c-.34,0-.49.33-.49.64s.2.64.48.64.49-.29.49-.64-.14-.63-.49-.63"/><path class="cls-4" d="M164.19,64.57a.86.86,0,0,1,.18-.63.52.52,0,0,1,.37-.14.63.63,0,0,1,.24,0l0,.19a.45.45,0,0,0-.18,0c-.25,0-.31.23-.31.49v.09h.38v.19h-.38v1.4h-.24v-1.4H164v-.19Z"/><path class="cls-4" d="M165,64.29l.24-.08v.37h.41v.19h-.41v.92c0,.2.06.31.22.31a.4.4,0,0,0,.16,0v.19a.62.62,0,0,1-.23,0c-.38,0-.4-.35-.4-.52v-.91h-.24v-.19H165Z"/><path class="cls-4" d="M167.28,65.35a.76.76,0,0,1-.75.84.73.73,0,0,1-.72-.82.75.75,0,0,1,.74-.84.73.73,0,0,1,.72.82m-.73-.62c-.34,0-.49.33-.49.64s.19.64.48.64.49-.29.49-.64-.14-.63-.48-.63"/><path class="cls-4" d="M167.8,64.84a.59.59,0,0,1,.54-.31c.37,0,.64.32.64.81s-.34.85-.69.85a.53.53,0,0,1-.47-.25h0v.86h-.24V65.08c0-.21,0-.37,0-.51h.22l0,.27Zm0,.69a.45.45,0,0,0,.45.47c.31,0,.48-.27.48-.65s-.17-.62-.48-.62a.49.49,0,0,0-.45.49Z"/><path class="cls-4" d="M169.39,64.29a.16.16,0,0,1-.16-.17.16.16,0,0,1,.16-.16.16.16,0,0,1,0,.33m.12,1.86h-.24V64.57h.24Z"/><path class="cls-4" d="M171,65.78a2.29,2.29,0,0,0,0,.38h-.22l0-.2h0a.55.55,0,0,1-.47.24.44.44,0,0,1-.46-.45c0-.38.33-.59.92-.58,0-.13,0-.44-.36-.44a.67.67,0,0,0-.39.12l-.06-.17a.92.92,0,0,1,.48-.13c.45,0,.57.32.57.63Zm-.24-.44c-.3,0-.67,0-.67.38a.27.27,0,0,0,.27.3.39.39,0,0,0,.4-.37Z"/><path class="cls-4" d="M172.62,65.46c0,.57-.27.74-.63.74a.79.79,0,0,1-.28,0l0-.2a.64.64,0,0,0,.22,0c.25,0,.4-.11.4-.55V63.95h.24Z"/><path class="cls-4" d="M174,65.78a2.19,2.19,0,0,0,0,.38h-.22l0-.2h0a.55.55,0,0,1-.47.24.44.44,0,0,1-.46-.45c0-.38.33-.59.92-.58,0-.13,0-.44-.36-.44a.67.67,0,0,0-.39.12l-.06-.17a.91.91,0,0,1,.48-.13c.45,0,.57.32.57.63Zm-.24-.44c-.3,0-.68,0-.68.38a.27.27,0,0,0,.28.3.39.39,0,0,0,.4-.37Z"/><path class="cls-4" d="M174.65,64.84a.59.59,0,0,1,.54-.31c.37,0,.65.32.65.81s-.34.85-.69.85a.54.54,0,0,1-.48-.25h0v.86h-.24V65.08c0-.21,0-.37,0-.51h.22l0,.27Zm0,.69a.45.45,0,0,0,.45.47c.31,0,.48-.27.48-.65s-.16-.62-.47-.62a.49.49,0,0,0-.45.49Z"/><path class="cls-4" d="M177.16,65.78a2.78,2.78,0,0,0,0,.38H177l0-.2h0a.54.54,0,0,1-.46.24.44.44,0,0,1-.46-.45c0-.38.33-.59.92-.58,0-.13,0-.44-.36-.44a.68.68,0,0,0-.39.12l-.06-.17a.91.91,0,0,1,.48-.13c.45,0,.56.32.56.63Zm-.24-.44c-.3,0-.67,0-.67.38a.27.27,0,0,0,.27.3.39.39,0,0,0,.4-.37Z"/><path class="cls-4" d="M178.82,66.16h-.24v-.93c0-.26-.09-.49-.37-.49a.43.43,0,0,0-.42.45v1h-.24V65c0-.16,0-.28,0-.41h.22l0,.26h0a.58.58,0,0,1,.51-.29c.2,0,.53.12.53.66Z"/><path class="cls-4" d="M181.27,66.09a1.34,1.34,0,0,1-.55.1,1,1,0,0,1-1-1.12,1.06,1.06,0,0,1,1.09-1.16,1.09,1.09,0,0,1,.49.09l-.06.2a1,1,0,0,0-.42-.09.83.83,0,0,0-.85.94.81.81,0,0,0,.83.93,1.1,1.1,0,0,0,.45-.09Z"/><path class="cls-4" d="M182.66,66.09a1.11,1.11,0,0,1-.5.1.72.72,0,0,1-.74-.8c0-.5.28-.86.71-.86a.65.65,0,0,1,.61.72,1.34,1.34,0,0,1,0,.13h-1.08c0,.44.25.61.54.61a.94.94,0,0,0,.41-.09Zm-.16-.88c0-.21-.09-.49-.4-.49s-.42.28-.44.49Z"/><path class="cls-4" d="M184.29,66.16h-.24v-.93c0-.26-.09-.49-.37-.49a.43.43,0,0,0-.41.45v1H183V65c0-.16,0-.28,0-.41h.22v.26h0a.57.57,0,0,1,.51-.29c.2,0,.54.12.54.66Z"/><path class="cls-4" d="M184.75,64.29l.24-.08v.37h.41v.19H185v.92c0,.2.06.31.21.31a.42.42,0,0,0,.17,0v.19a.66.66,0,0,1-.24,0c-.38,0-.39-.35-.39-.52v-.91h-.24v-.19h.24Z"/><path class="cls-4" d="M186.76,66.09a1.11,1.11,0,0,1-.5.1.72.72,0,0,1-.74-.8c0-.5.28-.86.71-.86a.64.64,0,0,1,.61.72c0,.06,0,.1,0,.13h-1.08c0,.44.25.61.54.61a.94.94,0,0,0,.41-.09Zm-.15-.88c0-.21-.09-.49-.4-.49s-.42.28-.44.49Z"/><path class="cls-4" d="M187.85,64.78h-.09c-.26,0-.4.26-.4.53v.86h-.24V65c0-.17,0-.32,0-.47h.21v.3h0a.47.47,0,0,1,.43-.34h.07Z"/><path class="cls-4" d="M189.51,65a.57.57,0,0,1,.46.56.58.58,0,0,1-.18.44,1,1,0,0,1-.72.21c-.18,0-.32,0-.41,0V64a2.45,2.45,0,0,1,.48,0,.86.86,0,0,1,.58.16.48.48,0,0,1,.17.38.53.53,0,0,1-.38.49Zm-.35-.08c.3,0,.48-.17.48-.4h0c0-.27-.19-.37-.49-.37a1,1,0,0,0-.25,0v.75ZM188.9,66h.23c.3,0,.58-.12.58-.45s-.29-.45-.58-.45h-.23Z"/><path class="cls-4" d="M191.5,65.74c0,.16,0,.3,0,.42h-.22v-.25h0a.57.57,0,0,1-.51.28c-.24,0-.52-.14-.52-.68v-.94h.24v.89c0,.31.09.52.36.52a.42.42,0,0,0,.41-.43v-1h.25Z"/><path class="cls-4" d="M192,64.29a.16.16,0,0,1-.16-.17A.16.16,0,0,1,192,64a.15.15,0,0,1,.16.16.16.16,0,0,1-.16.17m.12,1.86h-.24V64.57h.24Z"/><rect class="cls-4" x="192.55" y="63.83" width="0.24" height="2.32"/><path class="cls-4" d="M194.47,65.76c0,.13,0,.29,0,.39h-.22v-.27h0a.56.56,0,0,1-.52.31c-.36,0-.65-.32-.65-.8s.32-.85.68-.85a.5.5,0,0,1,.46.24h0v-.95h.24Zm-.24-.56a.44.44,0,0,0-.43-.48c-.3,0-.47.28-.47.65s.15.62.47.62a.46.46,0,0,0,.43-.48Z"/><path class="cls-4" d="M195,64.29a.15.15,0,0,1-.16-.17A.16.16,0,0,1,195,64a.16.16,0,0,1,0,.33m.12,1.86h-.25V64.57h.25Z"/><path class="cls-4" d="M196.78,66.16h-.24v-.93c0-.26-.09-.49-.37-.49a.43.43,0,0,0-.41.45v1h-.24V65c0-.16,0-.28,0-.41h.22l0,.26h0a.57.57,0,0,1,.51-.29c.2,0,.54.12.54.66Z"/><path class="cls-4" d="M198.46,64.57c0,.11,0,.24,0,.44v.92c0,.28,0,.91-.76.91a1,1,0,0,1-.5-.12l.07-.19a.87.87,0,0,0,.44.12c.29,0,.5-.15.5-.57v-.19h0a.54.54,0,0,1-.49.27.7.7,0,0,1-.65-.78.75.75,0,0,1,.68-.84.5.5,0,0,1,.48.27h0v-.24Zm-.26.61a.43.43,0,0,0-.42-.45c-.28,0-.48.25-.48.63s.16.6.47.6a.43.43,0,0,0,.42-.46Z"/><path class="cls-5" d="M156.79,57.76V52.44h-2.06v4.1h-1.34v-4.1h-2.06v5.32H149v8.4H159.1v-8.4Z"/><path class="cls-4" d="M43.6,64.82H19.11V52.92H43.6Zm.65-12.55H18.46v13.2h25.8Z"/><path class="cls-3" d="M93.13,59.57H91.77V58.22h1.35Zm-2.71,0H89.07V58.22h1.35Zm-2.71,0H86.36V58.22h1.35Zm-2.71,0H83.65V58.22H85Zm-2.71,0H81V58.22H82.3Zm-2.71,0H78.24V58.22h1.35Zm-2.71,0H75.54V58.22h1.35Zm-2.7,0H72.83V58.22h1.35Zm-2.71,0H70.12V58.22h1.35Zm-5.41,0H64.71V58.22h1.36Zm-2.71,0H62V58.22h1.35Zm-2.71,0H59.3V58.22h1.35Zm-2.7,0H56.59V58.22h1.35Zm-2.71,0H53.88V58.22h1.35Zm-2.71,0H51.18V58.22h1.35Zm-2.71,0H48.47V58.22h1.35Zm-2.71,0H45.77V58.22h1.35Zm-30,0H15.79V58.22h1.35Zm-2.71,0H13.08V58.22h1.35Zm-2.7,0H10.38V58.22h1.35ZM9,59.57H7.67V58.22H9Zm-2.71,0H5V58.22H6.32Zm-2.71,0H2.26V58.22H3.61Z"/><rect class="cls-3" x="127.23" y="38.85" width="1.34" height="1.35" transform="translate(-2.81 68.45) rotate(-29.65)"/><rect class="cls-3" x="129.56" y="37.52" width="1.35" height="1.35" transform="translate(-1.8 69.62) rotate(-29.73)"/><rect class="cls-3" x="131.9" y="36.19" width="1.35" height="1.35" transform="translate(-0.94 70.16) rotate(-29.54)"/><rect class="cls-3" x="122.55" y="41.51" width="1.34" height="1.35" transform="translate(-4.75 66.42) rotate(-29.62)"/><rect class="cls-3" x="124.89" y="40.18" width="1.35" height="1.35" transform="translate(-3.77 67.46) rotate(-29.65)"/><rect class="cls-3" x="136.58" y="33.52" width="1.35" height="1.35" transform="translate(1.05 72.37) rotate(-29.65)"/><rect class="cls-3" x="141.25" y="30.86" width="1.35" height="1.35" transform="translate(3.12 74.79) rotate(-29.84)"/><polygon class="cls-3" points="119.97 43.26 120.64 44.44 121.81 43.77 121.14 42.6 119.97 43.26"/><rect class="cls-3" x="143.59" y="29.53" width="1.34" height="1.35" transform="translate(4.01 75.52) rotate(-29.73)"/><rect class="cls-3" x="138.92" y="32.19" width="1.34" height="1.35" transform="translate(2.06 73.51) rotate(-29.72)"/><rect class="cls-3" x="106.19" y="50.83" width="1.34" height="1.36" transform="translate(-11.49 59.63) rotate(-29.66)"/><rect class="cls-3" x="103.85" y="52.16" width="1.35" height="1.35" transform="translate(-12.46 58.53) rotate(-29.6)"/><rect class="cls-3" x="101.51" y="53.49" width="1.34" height="1.35" transform="translate(-13.41 57.84) rotate(-29.75)"/><rect class="cls-3" x="99.17" y="54.82" width="1.35" height="1.35" transform="translate(-14.38 56.7) rotate(-29.67)"/><rect class="cls-3" x="96.84" y="56.15" width="1.35" height="1.35" transform="translate(-15.34 55.61) rotate(-29.61)"/><rect class="cls-3" x="94.5" y="57.48" width="1.34" height="1.35" transform="translate(-16.31 54.64) rotate(-29.62)"/><rect class="cls-3" x="108.53" y="49.5" width="1.34" height="1.35" transform="translate(-10.52 60.61) rotate(-29.66)"/><polygon class="cls-3" points="112.95 47.25 113.62 48.43 114.79 47.77 114.12 46.59 112.95 47.25"/><rect class="cls-3" x="115.54" y="45.5" width="1.34" height="1.35" transform="translate(-7.61 63.64) rotate(-29.7)"/><rect class="cls-3" x="145.93" y="28.2" width="1.34" height="1.35" transform="translate(4.91 76.3) rotate(-29.65)"/><rect class="cls-3" x="110.86" y="48.17" width="1.35" height="1.35" transform="translate(-9.53 61.79) rotate(-29.75)"/><rect class="cls-3" x="117.88" y="44.17" width="1.34" height="1.35" transform="translate(-6.66 64.55) rotate(-29.66)"/><rect class="cls-3" x="134.24" y="34.85" width="1.35" height="1.35" transform="translate(0.1 71.44) rotate(-29.67)"/><rect class="cls-3" x="180.99" y="8.23" width="1.34" height="1.35" transform="translate(19.41 91.09) rotate(-29.67)"/><rect class="cls-3" x="183.33" y="6.9" width="1.35" height="1.35" transform="translate(20.32 91.97) rotate(-29.63)"/><rect class="cls-3" x="176.32" y="10.89" width="1.34" height="1.35" transform="translate(17.57 89.32) rotate(-29.74)"/><rect class="cls-3" x="148.26" y="26.87" width="1.35" height="1.35" transform="translate(5.89 77.33) rotate(-29.67)"/><rect class="cls-3" x="173.98" y="12.23" width="1.35" height="1.35" transform="matrix(0.87, -0.49, 0.49, 0.87, 16.43, 87.97)"/><rect class="cls-3" x="178.66" y="9.56" width="1.35" height="1.35" transform="translate(18.37 89.96) rotate(-29.62)"/><rect class="cls-3" x="188.01" y="4.24" width="1.35" height="1.35" transform="translate(22.24 93.92) rotate(-29.63)"/><rect class="cls-3" x="195.02" y="0.24" width="1.35" height="1.35" transform="translate(25.18 96.95) rotate(-29.66)"/><rect class="cls-3" x="190.35" y="2.91" width="1.34" height="1.35" transform="translate(23.29 95.06) rotate(-29.68)"/><rect class="cls-3" x="192.68" y="1.58" width="1.35" height="1.35" transform="translate(24.31 96.14) rotate(-29.72)"/><rect class="cls-3" x="185.67" y="5.57" width="1.34" height="1.35" transform="translate(21.22 92.83) rotate(-29.59)"/><rect class="cls-3" x="159.96" y="20.21" width="1.34" height="1.35" transform="translate(10.77 82.37) rotate(-29.72)"/><rect class="cls-3" x="157.62" y="21.54" width="1.35" height="1.35" transform="translate(9.76 81.27) rotate(-29.67)"/><rect class="cls-3" x="155.28" y="22.87" width="1.34" height="1.35" transform="translate(8.69 80.03) rotate(-29.57)"/><rect class="cls-3" x="152.94" y="24.2" width="1.35" height="1.35" transform="translate(7.69 78.95) rotate(-29.53)"/><rect class="cls-3" x="150.6" y="25.54" width="1.35" height="1.35" transform="translate(6.82 78.21) rotate(-29.63)"/><rect class="cls-3" x="171.64" y="13.56" width="1.34" height="1.35" transform="translate(15.47 87) rotate(-29.61)"/><rect class="cls-3" x="166.97" y="16.22" width="1.35" height="1.35" transform="translate(13.56 85.06) rotate(-29.62)"/><rect class="cls-3" x="162.29" y="18.88" width="1.35" height="1.35" transform="matrix(0.87, -0.49, 0.49, 0.87, 11.68, 83.23)"/><rect class="cls-3" x="169.31" y="14.89" width="1.35" height="1.35" transform="translate(14.3 85.57) rotate(-29.44)"/><rect class="cls-3" x="164.63" y="17.55" width="1.34" height="1.35" transform="translate(12.57 84.03) rotate(-29.6)"/><path class="cls-3" d="M30.71,15.15H25.64a1.62,1.62,0,1,1,0-3.23h5.06a1.62,1.62,0,1,1,0,3.23m-5.06-2.87a1.26,1.26,0,1,0,0,2.52h5.06a1.26,1.26,0,1,0,0-2.52Z"/><path class="cls-3" d="M26.54,13.54a.91.91,0,1,0-.91.87.89.89,0,0,0,.91-.87"/><path class="cls-3" d="M31.63,13.54a.91.91,0,1,0-.91.87.89.89,0,0,0,.91-.87"/><path class="cls-3" d="M29.08,13.54a.91.91,0,1,0-.91.87.89.89,0,0,0,.91-.87"/><path class="cls-1" d="M154.38,62.28h-.68v1.05h.68a.56.56,0,0,0,.4-.13.51.51,0,0,0,.14-.41.48.48,0,0,0-.14-.4.59.59,0,0,0-.4-.12"/><path class="cls-1" d="M156.16,60.67H152a.68.68,0,0,0-.67.68v4.2a.68.68,0,0,0,.67.67h4.2a.68.68,0,0,0,.68-.67v-4.2a.68.68,0,0,0-.68-.68m-.8,3a1.37,1.37,0,0,1-.9.26h-.75v1.29H153V61.66h1.53a1.25,1.25,0,0,1,.85.28,1.09,1.09,0,0,1,.31.86,1.12,1.12,0,0,1-.31.9"/><path class="cls-1" d="M154.78,63.2a.57.57,0,0,1-.4.13h-.68V62.28h.68a.58.58,0,0,1,.4.12.48.48,0,0,1,.14.4.52.52,0,0,1-.14.41"/><path class="cls-2" d="M182.5,68.69H143.84V38.11L184.47,15H184a1.53,1.53,0,0,1-.63-.13L123.54,48.9V69.1h0V88.31H72.09a1.39,1.39,0,0,1,0,.33,1.35,1.35,0,0,1,0,.35h30.85v18.95h.68V89h20v18.95h.68V89h28.81a1.43,1.43,0,0,1,0-.35,1.28,1.28,0,0,1,0-.33h-9.21V69.36h12.87V87.21h.68V69.36H182.5a1.34,1.34,0,0,1,0-.35A1.52,1.52,0,0,1,182.5,68.69ZM143.16,88.31H124.24V68.17h0V49.28L143.16,38.5Z"/></g></g></svg>