<svg xmlns="http://www.w3.org/2000/svg" viewBox="0 0 308.59 206.61"><defs><style>.cls-1{fill:#004262;}</style></defs><title>Asset 1</title><g id="Layer_2" data-name="Layer 2"><g id="Layer_1-2" data-name="Layer 1"><g id="Layer_2-2" data-name="Layer 2"><g id="Layer_1-2-2" data-name="Layer 1-2"><g id="レイヤー_2" data-name="レイヤー 2"><g id="top"><path class="cls-1" d="M10.59,58A5.55,5.55,0,0,1,9.37,62a4.84,4.84,0,0,1-3.89,1.81A5.62,5.62,0,1,1,9.9,54.51L8.52,56a4,4,0,0,0-3.09-1.44A3.52,3.52,0,0,0,1.86,58v.15a3.72,3.72,0,0,0,3.62,3.73h.11a2.84,2.84,0,0,0,2.82-1.81h-3V58.13h5.16Z"/><path class="cls-1" d="M13.73,56.53a1.65,1.65,0,0,1,2-1.2l.13,0c.11.05.21.05.32.11l-.59,1.7a1.07,1.07,0,0,0-.59-.11c-.53,0-1,.64-1,1.81v4.58H12.08V55.58h1.65Z"/><path class="cls-1" d="M22.78,62.66a3,3,0,0,1-2.34,1.06,3.88,3.88,0,0,1-3.67-4.08v-.07c0-2.45,1.6-4.15,3.62-4.15a3.15,3.15,0,0,1,2.4,1.06v-.85H24.7v7.93H22.78Zm-4-3.14a2.12,2.12,0,0,0,1.89,2.33h.19A2.15,2.15,0,0,0,23,59.46a2.1,2.1,0,0,0-1.85-2.33h-.28a2.2,2.2,0,0,0-2.09,2.31Z"/><path class="cls-1" d="M32.31,62.66A3,3,0,0,1,30,63.72a3.88,3.88,0,0,1-3.71-4v-.1c0-2.45,1.6-4.15,3.62-4.15a3.15,3.15,0,0,1,2.4,1.06V52.54h1.92v11H32.31Zm-4.1-3.14a2.09,2.09,0,1,0,2.33-2.37h-.26A2.23,2.23,0,0,0,28.2,59.5v0Z"/><path class="cls-1" d="M35.88,55.58H37.8v4.15c0,1.44.43,2.18,1.44,2.18s1.44-.75,1.44-2.08v-4.2H42.6V59.3a4.81,4.81,0,0,1-.9,3.46,3.11,3.11,0,0,1-2.45,1A3,3,0,0,1,36,61v0a8.56,8.56,0,0,1,0-1.65Z"/><path class="cls-1" d="M49.93,62.66a3,3,0,0,1-2.34,1.06,3.88,3.88,0,0,1-3.67-4.08v-.07c0-2.45,1.6-4.15,3.62-4.15a3.15,3.15,0,0,1,2.4,1.06v-.85h1.92v7.93H49.93Zm-4.1-3.14a2.12,2.12,0,0,0,1.89,2.33h.19A2.15,2.15,0,0,0,50,59.67q0-.1,0-.21a2.1,2.1,0,0,0-1.85-2.33h-.28a2.2,2.2,0,0,0-2.09,2.31v.09Z"/><path class="cls-1" d="M54.3,52.65h1.92v2.93h1.12v1.7H56.21v6.23H54.3V57.28h-1v-1.7h1Z"/><path class="cls-1" d="M61.54,53.61a1.25,1.25,0,0,1-1.22,1.28h0a1.31,1.31,0,0,1-1.22-1.38,1.2,1.2,0,0,1,1.18-1.22h0a1.33,1.33,0,0,1,1.22,1.33Zm-2.18,2h1.92v7.93H59.35Z"/><path class="cls-1" d="M70.37,59.51a4.08,4.08,0,1,1,0-.15Zm-6.07,0a2.07,2.07,0,0,0,1.84,2.28h.24a2.14,2.14,0,0,0,2.13-2.13v-.16a2.11,2.11,0,0,0-1.92-2.28h-.21a2.17,2.17,0,0,0-2.08,2.15Z"/><path class="cls-1" d="M73.57,56.37a3.24,3.24,0,0,1,2.24-1,2.49,2.49,0,0,1,2.61,2.37s0,.09,0,.13v5.64H76.49V59.78c0-1.54-.11-2.56-1.28-2.56a1.43,1.43,0,0,0-1.28.75,3.89,3.89,0,0,0-.37,2.18V63.5H71.65V55.58h1.92Z"/><path class="cls-1" d="M90.6,62.66a3.07,3.07,0,0,1-2.4,1.06,3.88,3.88,0,0,1-3.67-4.08v-.07c0-2.45,1.6-4.15,3.62-4.15a3.15,3.15,0,0,1,2.4,1.06v-.85h1.92v7.93H90.55Zm-4.1-3.14a2.12,2.12,0,0,0,1.89,2.33h.19a2.15,2.15,0,0,0,2.13-2.4,2.1,2.1,0,0,0-1.85-2.33h-.28a2.2,2.2,0,0,0-2.09,2.31Z"/><path class="cls-1" d="M96.35,56.37a3.24,3.24,0,0,1,2.24-1,2.49,2.49,0,0,1,2.61,2.37s0,.09,0,.13v5.64H99.28V59.78c0-1.54-.11-2.56-1.28-2.56a1.43,1.43,0,0,0-1.28.75,3.89,3.89,0,0,0-.37,2.18V63.5H94.43V55.58h1.92Z"/><path class="cls-1" d="M108.75,62.66a3,3,0,0,1-2.34,1.06,3.88,3.88,0,0,1-3.67-4.08v-.07c0-2.45,1.6-4.15,3.62-4.15a3.15,3.15,0,0,1,2.4,1.06V52.54h1.92v11h-1.92Zm-4.1-3.14a2.12,2.12,0,0,0,1.89,2.33h.19a2.15,2.15,0,0,0,2.13-2.4A2.1,2.1,0,0,0,107,57.14h-.28a2.23,2.23,0,0,0-2.08,2.37Z"/><path class="cls-1" d="M117.43,52.75h2.4a3.94,3.94,0,0,1,2.93.85,3.33,3.33,0,0,1,.85,2.24,2.84,2.84,0,0,1-1.34,2.53,5.17,5.17,0,0,1-2.87.53v4.52h-2Zm2,4.21h.9c.9,0,1.33-.37,1.33-1.06s-.48-1.12-1.44-1.12h-.8Z"/><path class="cls-1" d="M126.53,56.53a1.78,1.78,0,0,1,1.6-1.22,1.69,1.69,0,0,1,.85.21l-.59,1.7a1.07,1.07,0,0,0-.59-.16c-.53,0-1,.64-1,1.81v4.58h-1.92V55.58h1.65Z"/><path class="cls-1" d="M137.34,59.51a4.08,4.08,0,1,1,0-.15Zm-6.12,0a2.07,2.07,0,0,0,1.84,2.28h.24a2.14,2.14,0,0,0,2.13-2.13v-.16a2.11,2.11,0,0,0-1.92-2.28h-.21a2.17,2.17,0,0,0-2.08,2.15v.14Z"/><path class="cls-1" d="M139.15,55.58h1.92V64c0,1.76-.69,2.61-2,2.61a3.51,3.51,0,0,1-1.44-.32V64.73a1.5,1.5,0,0,0,.8.21c.59,0,.75-.37.75-1.06Zm2.13-2a1.25,1.25,0,0,1-1.22,1.28h0a1.31,1.31,0,0,1-1.22-1.38,1.23,1.23,0,0,1,1.16-1.2h0a1.3,1.3,0,0,1,1.28,1.32h0Z"/><path class="cls-1" d="M150.38,61.91a3.87,3.87,0,0,1-3.51,1.76,3.93,3.93,0,0,1-4-3.85q0-.15,0-.3a4,4,0,0,1,8,.16h0v.43H144.7a2,2,0,0,0,2.13,1.81,2.36,2.36,0,0,0,1.92-.8ZM149,58.5a2.22,2.22,0,0,0-4.21,0Z"/><path class="cls-1" d="M159.85,62a4.36,4.36,0,0,1-7.77-2.5,4.16,4.16,0,0,1,4.1-4.21h.27A4,4,0,0,1,160,57.12l-1.6.9a2.45,2.45,0,0,0-1.92-.9A2.35,2.35,0,0,0,154,59.25v.27a2.16,2.16,0,0,0,2,2.29h.33a2.43,2.43,0,0,0,2-.9Z"/><path class="cls-1" d="M162.2,52.65h1.92v2.93h1.12v1.7h-1.12v6.23H162.2V57.28h-1v-1.7h1Z"/><path class="cls-1" d="M171.56,52.75H174a3.8,3.8,0,0,1,2.93.85,3.09,3.09,0,0,1,.85,2.24,2.92,2.92,0,0,1-2,2.87l2.45,4.74H176.1l-2.4-4.52h-.21v4.52h-1.92Zm2,4.21h.9c.9,0,1.33-.37,1.33-1.12s-.48-1.06-1.38-1.06h-.85Z"/><path class="cls-1" d="M186.15,61.91a3.87,3.87,0,0,1-3.51,1.76,3.93,3.93,0,0,1-4-3.85q0-.15,0-.3a4,4,0,0,1,8,.16h0v.43h-6.17a2,2,0,0,0,2.13,1.81,2.31,2.31,0,0,0,1.92-.75Zm-1.38-3.41a2.22,2.22,0,0,0-4.21,0Z"/><path class="cls-1" d="M189.77,60.05c-1.22-.64-1.86-1.44-1.86-2.4a2.4,2.4,0,0,1,2.39-2.28h.11a2.92,2.92,0,0,1,2.5,1.33l-1.17,1.22a1.89,1.89,0,0,0-1.33-.75c-.37,0-.69.16-.69.48s.27.43.69.64l.69.37c1.28.69,2,1.38,2,2.56a2.47,2.47,0,0,1-2.47,2.47l-.3,0a3.12,3.12,0,0,1-2.66-1.38L188.84,61a2.15,2.15,0,0,0,1.6.9c.48,0,.85-.27.85-.64s-.32-.59-.85-.9Z"/><path class="cls-1" d="M201.75,61.91a3.87,3.87,0,0,1-3.51,1.76,4.16,4.16,0,0,1,0-8.3c2.5,0,4,1.81,4,4.31v.43H196.1a2,2,0,0,0,2.13,1.81,2.36,2.36,0,0,0,1.92-.8Zm-1.44-3.41a2.22,2.22,0,0,0-4.21,0Z"/><path class="cls-1" d="M209.47,62.66a3,3,0,0,1-2.34,1.06,3.88,3.88,0,0,1-3.67-4.08v-.07c0-2.45,1.6-4.15,3.62-4.15a3.15,3.15,0,0,1,2.4,1.06v-.85h1.92v7.93h-1.92v-.9Zm-4.1-3.14a2.12,2.12,0,0,0,1.89,2.33h.19a2.15,2.15,0,0,0,2.13-2.4,2.1,2.1,0,0,0-1.85-2.33h-.28a2.2,2.2,0,0,0-2.09,2.31Z"/><path class="cls-1" d="M215.11,56.53a1.78,1.78,0,0,1,1.6-1.22,1.69,1.69,0,0,1,.85.21l-.59,1.7a1.07,1.07,0,0,0-.59-.16c-.53,0-1,.64-1,1.81v4.58h-1.92V55.58h1.65Z"/><path class="cls-1" d="M225.91,62a4.36,4.36,0,0,1-7.77-2.5,4.16,4.16,0,0,1,4.1-4.21h.27A4,4,0,0,1,226,57.12l-1.6.9a2.45,2.45,0,0,0-1.92-.9,2.27,2.27,0,0,0-2.4,2.13v.26a2.16,2.16,0,0,0,2,2.29h.33a2.43,2.43,0,0,0,2-.9Z"/><path class="cls-1" d="M227.46,52.49h1.92v3.88a3.24,3.24,0,0,1,2.24-1,2.57,2.57,0,0,1,2.61,2.87v5.22H232.3V59.73c0-1.6-.16-2.56-1.33-2.56a1.55,1.55,0,0,0-1.28.75,4.12,4.12,0,0,0-.37,2.18v3.35h-1.86Z"/><path class="cls-1" d="M241,52.75h5.64v2H243v1.92h3.67v2H243v2.82h3.67v2H241Z"/><path class="cls-1" d="M247.84,55.58h2.24l1.49,2.18,1.49-2.18h2.24l-2.61,3.73,2.93,4.15h-2.24l-1.81-2.61-1.81,2.61h-2.18l2.87-4.15Z"/><path class="cls-1" d="M256.31,52.49h1.92v3.88a3.26,3.26,0,0,1,2.29-1,2.57,2.57,0,0,1,2.61,2.87v5.22h-1.92V59.73c0-1.6-.16-2.56-1.33-2.56a1.55,1.55,0,0,0-1.28.75,4.12,4.12,0,0,0-.37,2.18v3.35h-1.92Z"/><path class="cls-1" d="M267.22,53.61A1.25,1.25,0,0,1,266,54.88h0a1.31,1.31,0,0,1-1.22-1.38A1.2,1.2,0,0,1,266,52.28h0a1.26,1.26,0,0,1,1.22,1.3Zm-2.18,2h2v7.93h-2Z"/><path class="cls-1" d="M271.21,63.45H269.3v-11h1.92v3.94a3.23,3.23,0,0,1,2.4-1.06c2,0,3.62,1.7,3.62,4.15a3.88,3.88,0,0,1-3.6,4.15h-.07a3.23,3.23,0,0,1-2.4-1.06v.85Zm-.11-3.94A2.18,2.18,0,0,0,273,61.9h.18a2.15,2.15,0,0,0,2.09-2.21s0-.09,0-.13a2.12,2.12,0,0,0-1.89-2.33h-.19a2.06,2.06,0,0,0-2.13,2.29Z"/><path class="cls-1" d="M280.79,53.61a1.25,1.25,0,0,1-1.22,1.28h0a1.31,1.31,0,0,1-1.22-1.38,1.2,1.2,0,0,1,1.18-1.22h0a1.29,1.29,0,0,1,1.22,1.33Zm-2.18,2h1.92v7.93h-1.92Z"/><path class="cls-1" d="M283.35,52.65h1.92v2.93h1.12v1.7h-1.12v6.23h-1.92V57.28h-1v-1.7h1Z"/><path class="cls-1" d="M290.32,53.61a1.25,1.25,0,0,1-1.22,1.28h0a1.31,1.31,0,0,1-1.22-1.38,1.2,1.2,0,0,1,1.18-1.22h0a1.33,1.33,0,0,1,1.22,1.33Zm-2.18,2h1.92v7.93h-1.92Z"/><path class="cls-1" d="M299.48,59.51a4.08,4.08,0,1,1,0-.15Zm-6.12,0a2.07,2.07,0,0,0,1.84,2.28h.24a2.14,2.14,0,0,0,2.13-2.13v-.1a2.11,2.11,0,0,0-1.92-2.28h-.21a2.17,2.17,0,0,0-2.08,2.18Z"/><path class="cls-1" d="M303.26,56.37a3.24,3.24,0,0,1,2.24-1,2.49,2.49,0,0,1,2.61,2.37s0,.09,0,.13v5.64h-1.92V59.78c0-1.54-.11-2.56-1.28-2.56a1.43,1.43,0,0,0-1.28.75,3.89,3.89,0,0,0-.37,2.18V63.5h-1.92V55.58h1.92Z"/><path class="cls-1" d="M158.28,95.72a11.19,11.19,0,0,0,.56-3.57l.71.24a14.63,14.63,0,0,1-.56,3.73Zm1.67,6.12a10.64,10.64,0,0,0,.08-1.59V91a7.71,7.71,0,0,0-.08-1.35h1a7.71,7.71,0,0,0-.08,1.35v9.36a9.61,9.61,0,0,0,.08,1.51Zm1.67-8.1a7.11,7.11,0,0,0-.64-1.83l.56-.24a15.45,15.45,0,0,1,.64,1.75Zm1.83-2.46a7.27,7.27,0,0,0-1.27.08v-.87a6.42,6.42,0,0,0,1.27.08h2a4.53,4.53,0,0,0-.08-1h1a4.53,4.53,0,0,0-.08,1h2.38a6.83,6.83,0,0,0,1.27-.08v.83a6.83,6.83,0,0,0-1.27-.08h-2.46v1h2.07a6,6,0,0,0,1.19-.08V93a6,6,0,0,0-1.19-.08h-2.07v1h2.7a6.83,6.83,0,0,0,1.27-.08v.87a6.83,6.83,0,0,0-1.27-.08h-5.56a7.71,7.71,0,0,0-1.35.08v-.87a7.71,7.71,0,0,0,1.35.08h2.14v-1H163.9a6,6,0,0,0-1.19.08v-.79a6,6,0,0,0,1.19.08h1.59v-1Zm.08,9.05a8.63,8.63,0,0,0,.08,1.43h-1a8.63,8.63,0,0,0,.08-1.43V96.52a6,6,0,0,0-.08-1.19c.4,0,.79.08,1.19.08h4.05a6,6,0,0,0,1.19-.08,8.63,8.63,0,0,0-.08,1.43v3.81c0,.87-.24,1-1.27,1a9.18,9.18,0,0,1-1.35-.08,1.81,1.81,0,0,0-.24-.87,8.75,8.75,0,0,0,1.43.16c.48,0,.48-.08.48-.4v-1h-4.77Zm4.77-3.18v-1h-4.77v1Zm0,1.67v-1h-4.77v1Z"/><path class="cls-1" d="M176.86,93.25a4.53,4.53,0,0,0,1-.08V94a4.53,4.53,0,0,0-1-.08h-3.65a4.53,4.53,0,0,0-1,.08v-.87a4.53,4.53,0,0,0,1,.08h1.59V91.9h-1.19a3.87,3.87,0,0,0-1,.08v-.87a3.87,3.87,0,0,0,1,.08h1.19v-.4a6,6,0,0,0-.08-1.19h1a6,6,0,0,0-.08,1.19v.4h1a3.87,3.87,0,0,0,1-.08V92a3.87,3.87,0,0,0-1-.08h-1v1.42h1.27Zm0,3a4.53,4.53,0,0,0,1-.08V97a4.53,4.53,0,0,0-1-.08h-1.35v1.36h1.19a3.87,3.87,0,0,0,1-.08v.87a3.87,3.87,0,0,0-1-.08h-1.19v1.35a6.83,6.83,0,0,0,.08,1.27h-1a6.83,6.83,0,0,0,.08-1.27V99h-1.35a3.87,3.87,0,0,0-1,.08v-.87a3.87,3.87,0,0,0,1,.08h1.35V97h-1.59a4.53,4.53,0,0,0-1,.08v-.87a4.53,4.53,0,0,0,1,.08h2.38a8.51,8.51,0,0,0,.71-2.14l.71.24a9.31,9.31,0,0,1-.71,1.91Zm-3.18-.16a11.22,11.22,0,0,0-.48-1.75l.64-.24a11.25,11.25,0,0,1,.56,1.75Zm5.32-1v5.32a7.71,7.71,0,0,0,.08,1.35h-1a7.71,7.71,0,0,0,.08-1.35V91.36a6.42,6.42,0,0,0-.08-1.27,6,6,0,0,0,1.19.08h3a5.24,5.24,0,0,0,1.11-.08,6.62,6.62,0,0,1-.08,1,5.11,5.11,0,0,1-.4,1.91c-.16.32-.48.4-1.11.4a6.83,6.83,0,0,1-1.27-.08,2.82,2.82,0,0,0-.16-.79,9.73,9.73,0,0,0,1.51.16c.48,0,.56-.16.71-1.75H179v3.38h2.86a4.53,4.53,0,0,0,1-.08l.48.48a1.47,1.47,0,0,0-.16.56,11.46,11.46,0,0,1-1.35,3.57,8.87,8.87,0,0,0,2.22,2,4.37,4.37,0,0,0-.56.71,9.83,9.83,0,0,1-2.07-2,8.27,8.27,0,0,1-1.75,2c-.16-.24-.4-.48-.56-.71a7.27,7.27,0,0,0,1.83-2A10.19,10.19,0,0,1,179.44,95Zm1.11,0a9.2,9.2,0,0,0,1.27,3.18,11.45,11.45,0,0,0,1-3.18Z"/><path class="cls-1" d="M188,91.27c-.71.16-1,.16-1.75.32a3.22,3.22,0,0,0-.4-.71,12.18,12.18,0,0,0,3.73-.87,2.38,2.38,0,0,0,.64-.32l.48.71a9.31,9.31,0,0,1-1.91.71v2.07h.87a3,3,0,0,0,.87-.08V94a3.87,3.87,0,0,0-1-.08h-.87a5.55,5.55,0,0,0,1.94,2.43,3.73,3.73,0,0,0-.48.71,8.06,8.06,0,0,1-1.51-2.14c0,.16,0,.87.08,2.07v3.34a10.64,10.64,0,0,0,.08,1.59h-.87a10.64,10.64,0,0,0,.08-1.59v-3c0-.48,0-1.27.08-2.14a11,11,0,0,1-2,4,7,7,0,0,0-.48-.79,10.56,10.56,0,0,0,2.3-4.37H187a6,6,0,0,0-1.19.08v-1a6,6,0,0,0,1.19.08h1Zm3.65,7.86a10.39,10.39,0,0,0-1.19.4l-.08-1a3.6,3.6,0,0,0,1.27-.24l3.57-.87V91.07a8.63,8.63,0,0,0-.08-1.43h1a8.63,8.63,0,0,0-.08,1.43v6.12l.24-.08a11.31,11.31,0,0,0,1.27-.4l.08,1-1.27.24-.32.08v2.29a10.13,10.13,0,0,0,.08,1.51h-1a9.12,9.12,0,0,0,.08-1.51V98.25ZM191.57,94A11.72,11.72,0,0,1,194,96l-.48.71a10.06,10.06,0,0,0-2.38-2.14Zm.4-3.34a15.9,15.9,0,0,1,2.46,2.14l-.48.71a11,11,0,0,0-2.46-2.22Z"/><path class="cls-1" d="M205.54,100.72c0,.79-.24,1-1.51,1a10.13,10.13,0,0,1-1.51-.08c-.08-.32-.16-.56-.24-.87a11.85,11.85,0,0,0,1.67.16c.64,0,.71-.08.71-.32v-2.7h-3.89a7.27,7.27,0,0,0-1.35.08V97a7.71,7.71,0,0,0,1.35.08h3.89v-1h.56a11.53,11.53,0,0,0,2.3-1.51h-4.77a7.27,7.27,0,0,0-1.27.08v-.87a6.83,6.83,0,0,0,1.27.08h4.69a3.87,3.87,0,0,0,1-.08l.48.56a3,3,0,0,1-.48.4,13.24,13.24,0,0,1-3,2v.4h3.89a7.27,7.27,0,0,0,1.35-.08v1a8.17,8.17,0,0,0-1.35-.08h-3.89Zm-3.49-9A8.91,8.91,0,0,0,200.78,90l.79-.24a17.44,17.44,0,0,1,1.35,2h1.91a7.14,7.14,0,0,0-1-1.91l.79-.24a12.67,12.67,0,0,1,1,2.14H207a7.53,7.53,0,0,0,1.35-2.14l.79.4a15,15,0,0,1-1.27,1.83h1a9.61,9.61,0,0,0,1.51-.08,5.24,5.24,0,0,0-.08,1.11v1a3.87,3.87,0,0,0,.08,1h-.87V92.46H200.3v2.3h-.87a3.87,3.87,0,0,0,.08-1v-1a5.24,5.24,0,0,0-.08-1.11,9.12,9.12,0,0,0,1.51.08Z"/><path class="cls-1" d="M216.34,90.71a3.87,3.87,0,0,0-.08-1h1a3.87,3.87,0,0,0-.08,1v.48h3v-.48a3.87,3.87,0,0,0-.08-1h1a3.87,3.87,0,0,0-.08,1v.48h2a8.63,8.63,0,0,0,1.43-.08v1A8.63,8.63,0,0,0,223,92h-2.07v.48a3.26,3.26,0,0,0,.08.87h-.87a3.56,3.56,0,0,0,.08-.87v-.4h-3v.4a3,3,0,0,0,.08.87h-.87c0-.32.08-.56.08-.87V92h-2a8.63,8.63,0,0,0-1.43.08v-1a8.63,8.63,0,0,0,1.43.08h2Zm-2,6.51a7.71,7.71,0,0,0-1.34.1v-1a7.71,7.71,0,0,0,1.35.08h8.82a7.71,7.71,0,0,0,1.35-.08v1a7.71,7.71,0,0,0-1.35-.08h-5.08a16.52,16.52,0,0,1-1.75,3c2.54-.16,3.81-.24,5.32-.48a15,15,0,0,0-1.59-1.59l.71-.48a27.34,27.34,0,0,1,3.26,3.49l-.79.56c-.32-.48-.64-.87-1-1.35a69.77,69.77,0,0,1-7.07.71,11.85,11.85,0,0,0-1.67.16l-.16-1c.24,0,.56.08.79.08l1.11-.08a14.82,14.82,0,0,0,1.75-3.1h-2.7Zm8.58-2.38a6.83,6.83,0,0,0-1.27-.08h-6a7.71,7.71,0,0,0-1.35.08v-1a7.71,7.71,0,0,0,1.35.08h6a6.42,6.42,0,0,0,1.27-.08Z"/><path class="cls-1" d="M227.69,97.07V95.48a8.5,8.5,0,0,1-1.11,1.27,1.65,1.65,0,0,0-.48-.79,6.62,6.62,0,0,0,2.07-2.38,8,8,0,0,0,.56-1.19l.79.48a3.22,3.22,0,0,0-.4.71,11.59,11.59,0,0,1-.64,1v5.48a10.64,10.64,0,0,0,.08,1.59h-1a10.64,10.64,0,0,0,.08-1.59ZM229.44,90a6,6,0,0,1-.56.71,13.2,13.2,0,0,1-2.07,2.14,4.4,4.4,0,0,0-.48-.64,7.09,7.09,0,0,0,2.38-2.7Zm1.43,4.37a16,16,0,0,1-1.11,5.8,3.22,3.22,0,0,0-.71-.4,14.3,14.3,0,0,0,1-5.48Zm2.46-2a4.88,4.88,0,0,0,1.11-.08v.87a4.53,4.53,0,0,0-1-.08h-.87v7.07a9.61,9.61,0,0,0,.08,1.51h-1a9.61,9.61,0,0,0,.08-1.51V93.08h-1a4.53,4.53,0,0,0-1,.08v-.84a5.63,5.63,0,0,0,1.11.08h.87V91a6.83,6.83,0,0,0-.08-1.27h1a6.83,6.83,0,0,0-.08,1.27V92.4Zm.16-2.46a8.71,8.71,0,0,1,1.11,1.67L234,92a8.13,8.13,0,0,0-1.11-1.75Zm.4,4.29a25.41,25.41,0,0,1,1,5l-.79.32a25.36,25.36,0,0,0-1-5ZM235.4,94a3.87,3.87,0,0,0-1,.08v-.87a3.87,3.87,0,0,0,1,.08h1.75a4.53,4.53,0,0,0,1-.08v.87a4.53,4.53,0,0,0-1-.08h-.32v6.43c0,.48-.08.79-.4.87a4.69,4.69,0,0,1-1.11.16,6,6,0,0,1-1.19-.08,3.38,3.38,0,0,0-.16-.87,10.76,10.76,0,0,0,1.59.16c.32,0,.4-.08.4-.32V94Zm2.6-2.72a3.87,3.87,0,0,0-1-.08h-1.2a3.87,3.87,0,0,0-1,.08v-.87a3.87,3.87,0,0,0,1,.08h1.27a3.87,3.87,0,0,0,1-.08Z"/><path class="cls-1" d="M246.76,93.73a11.25,11.25,0,0,0,2.14,4.37,9.1,9.1,0,0,0,3.57,2.62,3.28,3.28,0,0,0-.56.87,10.48,10.48,0,0,1-5.48-6.67,8.73,8.73,0,0,1-2.54,4.84,8.82,8.82,0,0,1-2.86,1.83,2.85,2.85,0,0,0-.56-.79,7.43,7.43,0,0,0,3.42-2.38,9.25,9.25,0,0,0,1.83-4.69h-3.57a8.63,8.63,0,0,0-1.43.08v-1a8.63,8.63,0,0,0,1.43.08h3.57c0-.64.08-1.11.08-1.59a10.13,10.13,0,0,0-.08-1.51h1.11a8.63,8.63,0,0,0-.08,1.43,10.66,10.66,0,0,1-.08,1.67h4a8.63,8.63,0,0,0,1.43-.08v1a8.63,8.63,0,0,0-1.43-.08Z"/><path class="cls-1" d="M260.18,100.72c0,.79-.24,1-1.43,1a10.13,10.13,0,0,1-1.51-.08,3.87,3.87,0,0,0-.32-.87,11.9,11.9,0,0,0,1.75.16c.64,0,.71-.08.71-.32v-2.7h-4A7.27,7.27,0,0,0,254,98V97a7.71,7.71,0,0,0,1.35.08h4v-1h.56a12.14,12.14,0,0,0,2.38-1.51h-4.77a7.27,7.27,0,0,0-1.27.08v-.87a6.83,6.83,0,0,0,1.27.08h4.69a3.87,3.87,0,0,0,1-.08l.48.56a3,3,0,0,1-.48.4,13.24,13.24,0,0,1-3,2v.4h3.89a7.27,7.27,0,0,0,1.35-.08v1a8.63,8.63,0,0,0-1.43-.08h-3.81Zm-3.49-9A8.5,8.5,0,0,0,255.5,90l.79-.24a17.44,17.44,0,0,1,1.35,2h1.91a7.14,7.14,0,0,0-1-1.91l.79-.24a12.67,12.67,0,0,1,1,2.14h1.51a7.53,7.53,0,0,0,1.35-2.14l.79.4a15,15,0,0,1-1.27,1.83h1a9.61,9.61,0,0,0,1.51-.08,5.24,5.24,0,0,0-.08,1.11v1a3.87,3.87,0,0,0,.08,1h-.87V92.46h-9.21v2.3h-.87a3.87,3.87,0,0,0,.08-1v-1a5.24,5.24,0,0,0-.08-1.11,9.12,9.12,0,0,0,1.51.08Z"/><path class="cls-1" d="M267.64,91V90c.32,0,.56.08.87.08h1.75a2.7,2.7,0,0,0,.79-.08l.4.48a1.34,1.34,0,0,1-.16.4c-.4,1-.87,2.07-1.35,3.1a6.56,6.56,0,0,1,1.11,1.75,5.13,5.13,0,0,1,.32,1.59c0,.79-.24,1.19-.71,1.27a4.53,4.53,0,0,1-1,.08h-.48a3.38,3.38,0,0,0-.16-.87,3.26,3.26,0,0,0,.87.08c.64,0,.71-.08.71-.71a3.69,3.69,0,0,0-.48-1.83,8.24,8.24,0,0,0-1-1.35,21.08,21.08,0,0,0,1.43-3.34h-2v9.64a6.83,6.83,0,0,0,.08,1.27h-1a6.83,6.83,0,0,0,.08-1.27Zm5.08,5.16a6,6,0,0,0-1.19.08V95.4a6,6,0,0,0,1.19.08h4.92a7.27,7.27,0,0,0,1.27-.08v.92a6.42,6.42,0,0,0-1.27-.08h-1.27v4.21c0,.32.16.32,1,.32s.87,0,1-2.14a1.41,1.41,0,0,0,.79.32c-.16,2.38-.32,2.54-1.83,2.54a6,6,0,0,1-1.19-.08.63.63,0,0,1-.56-.69V96.17h-1.35a5.94,5.94,0,0,1-1,3.65,5.67,5.67,0,0,1-2.78,1.91c-.16-.24-.4-.48-.56-.71,1.67-.56,2.38-1,2.86-2a5.21,5.21,0,0,0,.64-2.86Zm1.75-5.64a4.53,4.53,0,0,0-.08-1h1a4.53,4.53,0,0,0-.08,1v.56h2.22A6.83,6.83,0,0,0,278.8,91a3.22,3.22,0,0,0,0,.87v.87a3.87,3.87,0,0,0,.08,1H278V91.94h-5.72v1.83h-.79v-2.7a8.17,8.17,0,0,0,1.35.08h1.67Zm-1.91,2.7a3.87,3.87,0,0,0,1,.08h3a3.87,3.87,0,0,0,1-.08v.87c-.32,0-.64-.08-1-.08h-3a3.87,3.87,0,0,0-1,.08Z"/><path class="cls-1" d="M287.82,93.73A11.24,11.24,0,0,0,290,98.1a9.1,9.1,0,0,0,3.57,2.62,3.28,3.28,0,0,0-.56.87,10.48,10.48,0,0,1-5.48-6.67A8.73,8.73,0,0,1,285,99.76a10.93,10.93,0,0,1-2.86,1.83,2.85,2.85,0,0,0-.56-.79A7.43,7.43,0,0,0,285,98.42a8,8,0,0,0,1.83-4.69h-3.57a8.63,8.63,0,0,0-1.43.08v-1a8.63,8.63,0,0,0,1.43.08h3.57c0-.64.08-1.11.08-1.59a10.13,10.13,0,0,0-.08-1.51h1.11a8.63,8.63,0,0,0-.08,1.43,10.66,10.66,0,0,1-.08,1.67h4a8.63,8.63,0,0,0,1.43-.08v1a8.63,8.63,0,0,0-1.43-.08Z"/><path class="cls-1" d="M301.48,100.72c0,.79-.24,1-1.43,1a10.13,10.13,0,0,1-1.51-.08,3.87,3.87,0,0,0-.32-.87,11.85,11.85,0,0,0,1.67.16c.64,0,.71-.08.71-.32v-2.7h-3.89a7.27,7.27,0,0,0-1.35.08V97a7.71,7.71,0,0,0,1.35.08h4v-1h.56a11.53,11.53,0,0,0,2.3-1.51H298.8a7.27,7.27,0,0,0-1.27.08v-.87a6.83,6.83,0,0,0,1.27.08h4.69a3.87,3.87,0,0,0,1-.08l.48.56a3,3,0,0,1-.48.4,13.24,13.24,0,0,1-3,2v.4h3.89a7.27,7.27,0,0,0,1.35-.08v1a8.17,8.17,0,0,0-1.35-.08h-3.81Zm-3.49-9A8.5,8.5,0,0,0,296.8,90l.79-.24a17.44,17.44,0,0,1,1.35,2h1.91a7.14,7.14,0,0,0-1-1.91l.79-.24a12.67,12.67,0,0,1,1,2.14h1.51a7.53,7.53,0,0,0,1.35-2.14l.79.4A15,15,0,0,1,304,91.82h1a9.61,9.61,0,0,0,1.51-.08c0,.4-.08.71-.08,1.11v1a3.87,3.87,0,0,0,.08,1h-.87V92.47h-9.21v2.3h-.87c0-.32.08-.64.08-1v-1a5.24,5.24,0,0,0-.08-1.11,9.61,9.61,0,0,0,1.51.08Z"/><path class="cls-1" d="M4.86,111.7a7.56,7.56,0,0,1-1.51,1.62,4,4,0,0,0-.56-.64,7,7,0,0,0,2.22-3l.79.24a8.66,8.66,0,0,1-.48.87h2a6.83,6.83,0,0,0,1.27-.08v.87a6,6,0,0,0-1.19-.08H6.53l.71,1.19-.71.32a8.8,8.8,0,0,0-.71-1.51Zm3.42,7.07A8.67,8.67,0,0,1,6,120.67a12,12,0,0,1-2.7,1.27,7,7,0,0,0-.48-.79,10.06,10.06,0,0,0,2.54-1,10.57,10.57,0,0,0,2.36-1.83H4.55a3.74,3.74,0,0,1-.24.71L3.44,119a10.77,10.77,0,0,0,.87-3.49,6,6,0,0,0,1.19.08H8.2v-1.35H5.1a6.83,6.83,0,0,0-1.27.08v-.95a6.83,6.83,0,0,0,1.27.08h7a6,6,0,0,0,1.19-.08,3.26,3.26,0,0,0-.08.87v1.13a3.87,3.87,0,0,0,.08,1c-.32,0-.71-.08-1.19-.08h-3v1.43H13a5.24,5.24,0,0,0,1.11-.08c0,.16-.08.4-.08.56-.24,3-.32,3.18-1.67,3.18a8.63,8.63,0,0,1-1.43-.08,1.81,1.81,0,0,0-.24-.87,11.85,11.85,0,0,0,1.67.16c.48,0,.56-.08.64-.4.08-.56.16-1.19.24-1.75H9.15v2.38a9.61,9.61,0,0,0,.08,1.51h-1a5.24,5.24,0,0,0,.08-1.11v-.4ZM5.1,116.22a9.24,9.24,0,0,1-.32,1.43h3.5v-1.43Zm4.69-4.53A7.12,7.12,0,0,1,8.6,113.2a1.24,1.24,0,0,0-.64-.48,6.12,6.12,0,0,0,1.83-2.86l.79.24a8.63,8.63,0,0,0-.4,1h3a8.63,8.63,0,0,0,1.43-.08v.87a8.17,8.17,0,0,0-1.35-.08H11.85a12.9,12.9,0,0,1,.71,1.19l-.71.32a13.8,13.8,0,0,0-.79-1.51Zm2.7,3.81v-1.35H9.07v1.35Z"/><path class="cls-1" d="M16.94,110.74a5.24,5.24,0,0,0,1.11.08h.79a5.24,5.24,0,0,0,1.11-.08,21.56,21.56,0,0,0-.08,2.22v6.59a9.61,9.61,0,0,0,.08,1.51H18.68a9.61,9.61,0,0,0,.08-1.51v-7.78H18a4.88,4.88,0,0,0-1.11.08Z"/><path class="cls-1" d="M30,113.05a1.89,1.89,0,0,0-.48-.87,2,2,0,0,0-1.59-.71,2.31,2.31,0,0,0-2.22,1.67,7.44,7.44,0,0,0-.56,2.94,3.53,3.53,0,0,1,.64-.87,3,3,0,0,1,2.22-.79,3.09,3.09,0,0,1,3.26,2.86v.48a3.27,3.27,0,0,1-3,3.49h-.4a3.29,3.29,0,0,1-2.38-.87,5.69,5.69,0,0,1-1.35-4.21,7.13,7.13,0,0,1,1-4.05,3.33,3.33,0,0,1,2.78-1.51,3.41,3.41,0,0,1,2,.56A3.58,3.58,0,0,1,31,112.65Zm-2.1,2.27a2.59,2.59,0,0,0-1.83.79,2.39,2.39,0,0,0-.64,1.75,2.46,2.46,0,0,0,2.3,2.54h.16A2.5,2.5,0,0,0,30,119.32a3.12,3.12,0,0,0,.32-1.43,2.22,2.22,0,0,0-2.42-2.57Z"/><path class="cls-1" d="M35.2,111.38a6.83,6.83,0,0,0-.08-1.27H36a6.83,6.83,0,0,0-.08,1.27v.24H38.3v-.24a6.83,6.83,0,0,0-.08-1.27h.87a6.83,6.83,0,0,0-.08,1.27v.24a5.24,5.24,0,0,0,1.11-.08v.87a5.24,5.24,0,0,0-1.12-.09v5.8a4.53,4.53,0,0,0,1-.08v.87H34.73a4.53,4.53,0,0,0-1,.08v-.87a4.53,4.53,0,0,0,1,.08h.4v-5.8H35a4.88,4.88,0,0,0-1.11.08v-.87a5.24,5.24,0,0,0,1.11.08h.08v-.32Zm1.35,8.34a7.1,7.1,0,0,1-2.07,2.3,1.63,1.63,0,0,0-.64-.64,5.5,5.5,0,0,0,2-2.07Zm1.83-6v-1.4H36v1.43Zm0,2.14v-1.43H36v1.43Zm0,2.22v-1.59H36v1.59Zm-.16,1.24a5.48,5.48,0,0,0,1.27,1.43,4,4,0,0,0-.64.56,8,8,0,0,1-1.27-1.59Zm3.26-1.51A7.28,7.28,0,0,1,40,122.18a2.42,2.42,0,0,0-.64-.64,5.4,5.4,0,0,0,1.27-3c.16-2.07.24-4.21.24-6.27a10.64,10.64,0,0,0-.08-1.59,6.83,6.83,0,0,0,1.27.08h1.83a7.27,7.27,0,0,0,1.27-.08,6.83,6.83,0,0,0-.08,1.27V121c0,.48-.08.71-.32.87a2.35,2.35,0,0,1-1,.16,8.18,8.18,0,0,1-1-.08,2.11,2.11,0,0,0-.24-1,8.75,8.75,0,0,0,1.43.16c.32,0,.4-.08.4-.32v-3.18Zm.16-3.26a20.92,20.92,0,0,1-.08,2.46h2.7v-2.46Zm2.62-3.1H41.64v2.38h2.62Z"/><path class="cls-1" d="M49.5,113.6a13.13,13.13,0,0,1-1.75,2.86,4.36,4.36,0,0,0-.71-.56,11.76,11.76,0,0,0,2.3-4.13,7.44,7.44,0,0,0,.32-1.27l1,.24-.24.71a5.3,5.3,0,0,1-.48,1.27h2.78v-1.4a8.63,8.63,0,0,0-.08-1.43h1a8.63,8.63,0,0,0-.08,1.43v1.43h3.18a10.13,10.13,0,0,0,1.51-.08v1a9.12,9.12,0,0,0-1.51-.08H53.55v2.94h2.62a8.63,8.63,0,0,0,1.43-.08v1a8.63,8.63,0,0,0-1.43-.08h-2.7v3.57h3.65a9.61,9.61,0,0,0,1.51-.08v1a9.61,9.61,0,0,0-1.51-.08H48.71a9.61,9.61,0,0,0-1.51.08v-1a9.61,9.61,0,0,0,1.51.08H52.6v-3.57H50.21a7.27,7.27,0,0,0-1.35.08v-1a8.17,8.17,0,0,0,1.35.08H52.6v-2.86Z"/><path class="cls-1" d="M61.33,116.32v-2a8.24,8.24,0,0,1-1.19,2,2.47,2.47,0,0,0-.56-.71,13.74,13.74,0,0,0,2.78-5.72l.87.24a2.46,2.46,0,0,0-.16.56,13.17,13.17,0,0,1-1,2.46v7.39a9.66,9.66,0,0,0,.08,1.67h-1a11.73,11.73,0,0,0,.08-1.67v-4.22Zm2.7-4.05a5.63,5.63,0,0,0,0,1.05v5.32a7.27,7.27,0,0,0,.08,1.35h-.87a8.17,8.17,0,0,0,.08-1.35v-5.32a6,6,0,0,0-.08-1.19H64Zm7.7-.24a6.83,6.83,0,0,0-1.27-.08,7.09,7.09,0,0,1-1.75,2.3,8.81,8.81,0,0,0,3.49,1.27,2.48,2.48,0,0,0-.4.79,10.57,10.57,0,0,1-3.73-1.67,10.74,10.74,0,0,1-3.34,1.59,3.22,3.22,0,0,0-.4-.71,9.37,9.37,0,0,0,3.18-1.35,5.74,5.74,0,0,1-1.35-1.75A8.43,8.43,0,0,1,64.81,114a1.24,1.24,0,0,0-.64-.48,6.93,6.93,0,0,0,1.59-1.83,7.49,7.49,0,0,0,.79-1.83l.79.24c-.32.56-.32.64-.56,1.11h3.57a7.71,7.71,0,0,0,1.35-.08Zm0,6.59a3.45,3.45,0,0,1-.56.48A17.91,17.91,0,0,1,68.31,121a15.75,15.75,0,0,1-3.57,1.19,1.65,1.65,0,0,0-.48-.79,14.07,14.07,0,0,0,5-1.83A7.64,7.64,0,0,0,71,118.13ZM69,116.22l-.4.32a8,8,0,0,1-1.83,1,11.25,11.25,0,0,1-1.75.56,1.88,1.88,0,0,0-.48-.71,7,7,0,0,0,3.73-1.67Zm1.23,1.1a9.42,9.42,0,0,1-1.83,1.27,12.08,12.08,0,0,1-3.34,1.27,1.65,1.65,0,0,0-.48-.79,11.93,11.93,0,0,0,3.34-1.19,5.56,5.56,0,0,0,1.51-1.19ZM66.66,112a4.79,4.79,0,0,0,1.51,1.83A4.79,4.79,0,0,0,69.68,112Z"/><path class="cls-1" d="M75.55,111.54a10.64,10.64,0,0,0-1.59.08v-1a10.64,10.64,0,0,0,1.59.08h6.83a6.83,6.83,0,0,0,1.27-.08l.48.64A7.17,7.17,0,0,1,83,112.32a15.42,15.42,0,0,1-3.49,2.46v6.12a.8.8,0,0,1-.4.87,6.23,6.23,0,0,1-1.11.16c-.4,0-1-.08-1.83-.08a4,4,0,0,0-.16-1,9.16,9.16,0,0,0,2.07.24c.4,0,.56-.08.56-.32v-5.45a7.71,7.71,0,0,0-.08-1.35h.79a13,13,0,0,0,3.34-2.46Z"/><path class="cls-1" d="M87.38,111.32a4.88,4.88,0,0,0-1.11.08v-1a6,6,0,0,0,1.19.08H89.6a5.24,5.24,0,0,0,1.11-.08v.92a4.53,4.53,0,0,0-1-.08h-.79a16.58,16.58,0,0,1-.87,3.42h1.59a2.7,2.7,0,0,0,.79-.08v5.32a4.88,4.88,0,0,0,.08,1.11h-.79v-.69H88.1v1.43h-.87a6.83,6.83,0,0,0,.08-1.27v-4.37a5.71,5.71,0,0,1-1,1.67,1.65,1.65,0,0,0-.48-.79,9.49,9.49,0,0,0,1.83-3.42,10.4,10.4,0,0,0,.48-2.14Zm.56,8.34h1.59v-4.21H87.94Zm4.53-8.34a6.83,6.83,0,0,0-1.27.08v-1a7.27,7.27,0,0,0,1.35.08h4.13A6.83,6.83,0,0,0,98,110.4v1a6.83,6.83,0,0,0-1.27-.08h-.32v3.73h.4A6.83,6.83,0,0,0,98,115v1a6.83,6.83,0,0,0-1.27-.08h-.4v4.84a8.63,8.63,0,0,0,.08,1.43h-1a8.63,8.63,0,0,0,.08-1.43v-4.84H93.34c-.16,3-.71,4.69-2.22,6.43a3.11,3.11,0,0,0-.79-.64c1.35-1.35,2-3,2.07-5.8H92a6.83,6.83,0,0,0-1.27.08v-1A6.83,6.83,0,0,0,92,115h.4v-3.72Zm1,3.26v.48h2.14v-3.74H93.42Z"/><path class="cls-1" d="M107.08,116.7a8.63,8.63,0,0,0,1.43-.08,7.85,7.85,0,0,1-.08,1.19l-.08,2.7c0,.4.16.48,1.19.48s1.19-.08,1.27-.32a8.66,8.66,0,0,0,.24-2.07,1.67,1.67,0,0,0,.87.32c-.24,2.7-.32,2.78-2.38,2.78-1.59,0-1.91-.16-1.91-1.11v-.08l.08-3.18h-2.46a4.77,4.77,0,0,1-1,2.22,5.48,5.48,0,0,1-1.43,1.27,7.88,7.88,0,0,1-2.14,1.11,2.85,2.85,0,0,0-.56-.79,8.23,8.23,0,0,0,2.54-1.19,4.33,4.33,0,0,0,1.83-2.62H102.4a8.63,8.63,0,0,0-1.43.08v-1a8.63,8.63,0,0,0,1.43.08h2.22a5.24,5.24,0,0,0,.08-1.11,2.2,2.2,0,0,0-.08-.71h1a3.26,3.26,0,0,0-.08.87c0,.32-.08.64-.08,1ZM105.33,111a3.87,3.87,0,0,0-.08-1h1a3.87,3.87,0,0,0-.08,1v.4h3.89a7.71,7.71,0,0,0,1.35-.08,3.87,3.87,0,0,0-.08,1V113a3.87,3.87,0,0,0,.08,1h-.87v-1.75h-3.26v2c0,.16,0,.24.08.24a2.7,2.7,0,0,0,.79.08,2.18,2.18,0,0,0,1-.16c.16-.08.24-.48.24-1.11a1.53,1.53,0,0,0,.79.24c-.08.87-.16,1.27-.4,1.43a3.14,3.14,0,0,1-1.67.32c-1.35,0-1.67-.16-1.67-.71v-2.3h-1.59a4.79,4.79,0,0,1-.48,1.51,3.57,3.57,0,0,1-2,1.52,7,7,0,0,1-1.19.4,5.57,5.57,0,0,0-.48-.71,4.58,4.58,0,0,0,2.62-1.11,2.55,2.55,0,0,0,.79-1.75h-2.78v1.75h-.87a3.87,3.87,0,0,0,.08-1v-.71a3.87,3.87,0,0,0-.08-1,7.71,7.71,0,0,0,1.35.08h3.65Z"/><path class="cls-1" d="M117.25,117.41a15.3,15.3,0,0,0,.08-1.91,5.24,5.24,0,0,0-1.11.08v-.64a10.51,10.51,0,0,1-2.54,1.59,4.36,4.36,0,0,0-.56-.71,9,9,0,0,0,3-1.83,10.44,10.44,0,0,0-2-1.75l.64-.56a13.46,13.46,0,0,1,1.91,1.75,11.08,11.08,0,0,0,1.67-2.14H115.9a3.26,3.26,0,0,0-.87.08v-1a3.87,3.87,0,0,0,1,.08h2.46a6,6,0,0,0,1.19-.08,3.26,3.26,0,0,0,1,1.83,7.34,7.34,0,0,0,1.35-1.75l.71.48-.32.32a7.75,7.75,0,0,1-1.35,1.43,13.19,13.19,0,0,0,1.11,1,9.22,9.22,0,0,0,1.59-1.91l.71.48c-.16.16-.16.16-.64.71a14.68,14.68,0,0,1-1.11,1.11,9.27,9.27,0,0,0,2.46,1.35,1.65,1.65,0,0,0-.48.79,12.76,12.76,0,0,1-2.46-1.51v.64a5.24,5.24,0,0,0-1.11-.08h-.24v1.91h2.3a6.42,6.42,0,0,0,1.27-.08v1a6.83,6.83,0,0,0-1.27-.08h-2.3v2.54a.37.37,0,0,0,.24.4,4.2,4.2,0,0,0,1,.08c1,0,1.35-.08,1.59-.32a3.44,3.44,0,0,0,.32-1.51,2.94,2.94,0,0,0,.87.4,3.26,3.26,0,0,1-.56,1.75c-.24.32-.87.48-2.22.48-1.59,0-2-.16-2-1v-2.78H118a5.24,5.24,0,0,1-1,2.14,5.84,5.84,0,0,1-1.51,1.27,9.48,9.48,0,0,1-1.27.64,3.11,3.11,0,0,0-.64-.79,7.66,7.66,0,0,0,2-1,3.51,3.51,0,0,0,1.51-2.3h-1.91a6.83,6.83,0,0,0-1.27.08v-1a6.83,6.83,0,0,0,1.27.08Zm3.81-2.7h1a9.35,9.35,0,0,1-2.78-3.34,12.46,12.46,0,0,1-2.78,3.34h4.56Zm-2.94.71a15.3,15.3,0,0,1-.12,1.9h2.07v-1.91Z"/><path class="cls-1" d="M130.19,118.13a15.13,15.13,0,0,1-3.1,1.83,2.85,2.85,0,0,0-.56-.79,11.19,11.19,0,0,0,4.69-2.94H128a8.63,8.63,0,0,0-1.43.08v-1a8.63,8.63,0,0,0,1.43.08h3.89v-1.27h-2.7a7.71,7.71,0,0,0-1.35.08v-.88a7.71,7.71,0,0,0,1.35.08h2.7v-1.27h-3.42a8.63,8.63,0,0,0-1.43.08v-.87a8.63,8.63,0,0,0,1.43.08h3.34v-.32a6,6,0,0,0-.08-1.19h1a6,6,0,0,0-.08,1.19v.32h3.57a8.63,8.63,0,0,0,1.43-.08v.87a8.63,8.63,0,0,0-1.43-.08h-3.65v1.27h2.86a8.63,8.63,0,0,0,1.43-.08v.87a8.63,8.63,0,0,0-1.43-.08h-2.86v1.27h4.05a8.63,8.63,0,0,0,1.43-.08v1a8.63,8.63,0,0,0-1.43-.08H133a9.26,9.26,0,0,0,1.35,2.22,10.82,10.82,0,0,0,1.91-1.91l.79.56-.24.24A9.58,9.58,0,0,1,134.9,119a8.7,8.7,0,0,0,3.49,2.07,2.85,2.85,0,0,0-.56.79,10.33,10.33,0,0,1-5.64-5.64H132a9.61,9.61,0,0,1-1.27,1.27v3.18c1-.24,1.59-.4,2.94-.79v.79c-1.67.48-2.94.79-4.84,1.19-.24.08-.48.08-.64.16l-.24-1a15.62,15.62,0,0,0,1.91-.24Z"/><path class="cls-1" d="M146.32,110a8,8,0,0,0,2.22,2.38,16.42,16.42,0,0,0,3.57,2.14,3.28,3.28,0,0,0-.56.87A18,18,0,0,1,147.9,113a9.54,9.54,0,0,1-2.06-2.3,10.5,10.5,0,0,1-2,2.22,15.11,15.11,0,0,1-3.49,2.38,2.85,2.85,0,0,0-.56-.79,12.44,12.44,0,0,0,3.51-2.23,11.72,11.72,0,0,0,2.06-2.38Zm-4.45,7.55a10.13,10.13,0,0,0-1.51.08v-1a9.12,9.12,0,0,0,1.51.08h8a10.13,10.13,0,0,0,1.51-.08v1a9.12,9.12,0,0,0-1.51-.08H145.2a24.2,24.2,0,0,1-1.67,3.18c1.83-.08,3.18-.24,5.08-.48a22.25,22.25,0,0,0-1.59-1.67l.71-.48a26.93,26.93,0,0,1,3.18,3.57l-.71.56a7.8,7.8,0,0,0-1-1.35c-2.3.32-4.29.56-6.35.71a10.59,10.59,0,0,0-2.22.24l-.16-1a1.55,1.55,0,0,1,.64.08c.24,0,.24,0,1.35-.08a25.16,25.16,0,0,0,1.67-3.26Zm.87-3.34a4.53,4.53,0,0,0,1,.08H148a5.24,5.24,0,0,0,1.11-.08v.87A5.24,5.24,0,0,0,148,115h-4.21a4.53,4.53,0,0,0-1,.08Z"/><path class="cls-1" d="M160,116.06a1.07,1.07,0,1,1-2.14-.08,1,1,0,0,1,1-1,1.09,1.09,0,0,1,1.14,1Z"/><path class="cls-1" d="M174.67,111.7c0-.16-.08-.24-.08-.4a1.47,1.47,0,1,1,1.43,1.51,1,1,0,0,1-.48-.08v.08a11.46,11.46,0,0,1-7.47,8.58,6.63,6.63,0,0,0-.64-1,10,10,0,0,0,4.77-3.1,11.59,11.59,0,0,0,2.3-4.77h-6.67a8.63,8.63,0,0,0-1.43.08v-1.11a9.12,9.12,0,0,0,1.51.08l6.75.08Zm.48-.4a.92.92,0,0,0,1.83-.08.9.9,0,0,0-.92-.88H176a1,1,0,0,0-.83,1Z"/><path class="cls-1" d="M180.79,120v1h-1a4.53,4.53,0,0,0,.08-1v-7.31a4.53,4.53,0,0,0-.08-1c.32,0,.71.08,1,.08h7a4.53,4.53,0,0,0,1-.08v9.37h-1v-1Zm7-7.47h-7v6.59h7Z"/><path class="cls-1" d="M193.1,114.08a22.08,22.08,0,0,1,3.34,1.75l-.48,1a13.65,13.65,0,0,0-3.34-1.83Zm-.32,6.2h0a10.21,10.21,0,0,0,3.49-.79,9.61,9.61,0,0,0,5.48-6,3.41,3.41,0,0,0,.79.71c-1.67,4.05-4.37,6.2-9.05,7.15a1.6,1.6,0,0,0-.48.16Zm1.35-9.45a25.16,25.16,0,0,1,3.26,1.67l-.56.87a15.72,15.72,0,0,0-3.18-1.83Zm6.91-.64a11.53,11.53,0,0,1,1.35,2.07l-.64.4a9.81,9.81,0,0,0-1.35-2.14Zm1.43-.71a8.4,8.4,0,0,1,1.35,2.07l-.64.4a9.81,9.81,0,0,0-1.35-2.14Z"/><path class="cls-1" d="M210.81,120.32h2.78a6,6,0,0,0,1.19-.08v1a6,6,0,0,0-1.19-.08h-6.35a6,6,0,0,0-1.19.08v-1a6,6,0,0,0,1.19.08h2.7v-4.69h-1.83a6,6,0,0,0-1.19.08v-1a6,6,0,0,0,1.19.08h4.77a6,6,0,0,0,1.19-.08v1a5.63,5.63,0,0,0-1.11-.08h-2Z"/><path class="cls-1" d="M223.6,110.43a3.46,3.46,0,0,0-.32.56,8.68,8.68,0,0,1-.64,1.19,33.14,33.14,0,0,1,4-.08,2.2,2.2,0,0,0,.71-.08l.56.56c-.16.16-.16.16-.24.64a15.48,15.48,0,0,1-2.67,5.1,12.44,12.44,0,0,1-4.53,3.34,3.11,3.11,0,0,0-.64-.79,11,11,0,0,0,4.61-3.42,12.07,12.07,0,0,0,2.22-4.53l-4.37.08a13.07,13.07,0,0,1-3.1,3.49,1.56,1.56,0,0,0-.71-.71,9.22,9.22,0,0,0,3.26-3.73,6.13,6.13,0,0,0,.79-2Z"/><path class="cls-1" d="M233.92,121.62a8.63,8.63,0,0,0,.08-1.43v-8.42a7.27,7.27,0,0,0-.08-1.35H235a8.63,8.63,0,0,0-.08,1.43v2.54a30.27,30.27,0,0,1,5.8,2.86l-.56,1a29,29,0,0,0-4.84-2.7,1.74,1.74,0,0,1-.4-.24h0c0,.24.08.56.08.79v4.05a8.63,8.63,0,0,0,.08,1.43Z"/><path class="cls-1" d="M245,111.32a5.24,5.24,0,0,0-1.11.08v-1a6,6,0,0,0,1.19.08h2.14a5.24,5.24,0,0,0,1.11-.08v.92a4.53,4.53,0,0,0-1-.08h-.79a16.58,16.58,0,0,1-.87,3.42h1.67a2.7,2.7,0,0,0,.79-.08v5.32a4.89,4.89,0,0,0,.08,1.11h-.79v-.69h-1.59v1.43H245a6.83,6.83,0,0,0,.08-1.27v-4.37a5.71,5.71,0,0,1-1,1.67,1.65,1.65,0,0,0-.48-.79,10.9,10.9,0,0,0,1.83-3.42,10.4,10.4,0,0,0,.48-2.14Zm.48,8.34h1.59v-4.21h-1.59Zm4.52-8.34a6.83,6.83,0,0,0-1.27.08v-1a7.27,7.27,0,0,0,1.35.08h4.13a7.71,7.71,0,0,0,1.35-.08v1a6.83,6.83,0,0,0-1.27-.08H254v3.73h.4a7.71,7.71,0,0,0,1.35-.08v1a7.27,7.27,0,0,0-1.35-.08H254v4.84a8.63,8.63,0,0,0,.08,1.43h-1a8.63,8.63,0,0,0,.08-1.43v-4.84H251c-.16,3-.71,4.69-2.22,6.43a3.11,3.11,0,0,0-.79-.64c1.35-1.35,2-3,2.06-5.8h-.4a6.83,6.83,0,0,0-1.27.08v-1a6.83,6.83,0,0,0,1.27.08h.4v-3.72Zm1,3.26v.48h2.14v-3.74H251Z"/><path class="cls-1" d="M263.94,116.7a8.63,8.63,0,0,0,1.43-.08,7.86,7.86,0,0,1-.08,1.19l-.08,2.7c0,.4.16.48,1.19.48s1.19-.08,1.27-.32a8.66,8.66,0,0,0,.24-2.07,1.67,1.67,0,0,0,.87.32c-.24,2.7-.32,2.78-2.38,2.78-1.59,0-1.91-.16-1.91-1.11v-.08l.08-3.18h-2.46a4.77,4.77,0,0,1-1,2.22,5.48,5.48,0,0,1-1.43,1.27,7.88,7.88,0,0,1-2.14,1.11,2.85,2.85,0,0,0-.56-.79,8.23,8.23,0,0,0,2.54-1.19,4.33,4.33,0,0,0,1.83-2.62h-2.14a8.63,8.63,0,0,0-1.43.08v-1a8.63,8.63,0,0,0,1.43.08h2.22a5.24,5.24,0,0,0,.08-1.11,2.2,2.2,0,0,0-.08-.71h1a3.26,3.26,0,0,0-.08.87c0,.32-.08.64-.08,1ZM262.19,111a3.87,3.87,0,0,0-.08-1h1a3.87,3.87,0,0,0-.08,1v.4h4a7.71,7.71,0,0,0,1.35-.08,3.87,3.87,0,0,0-.08,1V113a3.87,3.87,0,0,0,.08,1h-.87v-1.75h-3.26v2c0,.16,0,.24.08.24a2.7,2.7,0,0,0,.79.08,2.18,2.18,0,0,0,1-.16c.16-.08.24-.48.24-1.11a1.53,1.53,0,0,0,.79.24c-.08.87-.16,1.27-.4,1.43a3.14,3.14,0,0,1-1.67.32c-1.35,0-1.67-.16-1.67-.71v-2.3H261.8a4.79,4.79,0,0,1-.48,1.51,3.57,3.57,0,0,1-2.06,1.67,7,7,0,0,1-1.19.4,5.58,5.58,0,0,0-.48-.71,4.58,4.58,0,0,0,2.62-1.11,2.55,2.55,0,0,0,.79-1.75h-2.78v1.75h-.87a3.87,3.87,0,0,0,.08-1v-.71a3.87,3.87,0,0,0-.08-1,7.71,7.71,0,0,0,1.35.08h3.65Z"/><path class="cls-1" d="M273.79,117.41a15.31,15.31,0,0,0,.08-1.91,4.2,4.2,0,0,0-1,.08v-.64a10.51,10.51,0,0,1-2.54,1.59,4.37,4.37,0,0,0-.56-.71,9,9,0,0,0,3-1.83,10.44,10.44,0,0,0-2-1.75l.64-.56a13.46,13.46,0,0,1,1.91,1.75,11.08,11.08,0,0,0,1.68-2.11h-2.46a3.26,3.26,0,0,0-.87.08v-1a3.87,3.87,0,0,0,1,.08h2.46a6,6,0,0,0,1.19-.08,3.26,3.26,0,0,0,1,1.83,7.34,7.34,0,0,0,1.35-1.75l.71.48a1.1,1.1,0,0,0-.24.32,7.75,7.75,0,0,1-1.35,1.43,6.86,6.86,0,0,0,1.11,1,9.21,9.21,0,0,0,1.59-1.91l.71.48c-.16.16-.16.16-.64.71a14.68,14.68,0,0,1-1.11,1.11,9.27,9.27,0,0,0,2.46,1.35,1.65,1.65,0,0,0-.48.79,16.48,16.48,0,0,1-2.54-1.51v.64a5.24,5.24,0,0,0-1.11-.08h-.32v1.91h2.38a7.71,7.71,0,0,0,1.35-.08v1a7.27,7.27,0,0,0-1.35-.08h-2.38v2.54a.37.37,0,0,0,.24.4,4.2,4.2,0,0,0,1,.08c1,0,1.35-.08,1.59-.32a3.44,3.44,0,0,0,.32-1.51,2.94,2.94,0,0,0,.87.4,3.26,3.26,0,0,1-.56,1.75c-.24.32-.87.48-2.22.48-1.59,0-2-.16-2-1v-2.78h-2.22a5.24,5.24,0,0,1-1,2.14,5.84,5.84,0,0,1-1.51,1.27,7,7,0,0,1-1.35.64,3.11,3.11,0,0,0-.64-.79,7.66,7.66,0,0,0,2-1,3.51,3.51,0,0,0,1.51-2.3h-1.91a6.83,6.83,0,0,0-1.27.08v-1a6.83,6.83,0,0,0,1.27.08Zm3.89-2.7h1a9.35,9.35,0,0,1-2.78-3.34,12.46,12.46,0,0,1-2.78,3.34h4.56Zm-3,.71a15.31,15.31,0,0,1-.08,1.91h2.06v-1.91Z"/><path class="cls-1" d="M286.58,118.13a15.13,15.13,0,0,1-3.1,1.83,2.85,2.85,0,0,0-.56-.79,11.19,11.19,0,0,0,4.69-2.94h-3.18a8.63,8.63,0,0,0-1.43.09v-1a8.63,8.63,0,0,0,1.43.08h3.81v-1.27h-2.7a7.71,7.71,0,0,0-1.35.08v-.89a7.71,7.71,0,0,0,1.35.08h2.7v-1.27h-3.42a7.27,7.27,0,0,0-1.35.08v-.87a8.63,8.63,0,0,0,1.43.08h3.34v-.32a6,6,0,0,0-.08-1.19h1a6,6,0,0,0-.08,1.19v.32h3.57a8.63,8.63,0,0,0,1.43-.08v.87a8.63,8.63,0,0,0-1.43-.08H289v1.27h3a8.63,8.63,0,0,0,1.43-.08v.87a8.63,8.63,0,0,0-1.43-.08h-3v1.27h4.13a8.63,8.63,0,0,0,1.43-.08v1a8.63,8.63,0,0,0-1.43-.08h-3.65a9.26,9.26,0,0,0,1.35,2.22,10.82,10.82,0,0,0,1.91-1.91l.79.56-.24.24a12.47,12.47,0,0,1-1.91,1.67,8.7,8.7,0,0,0,3.49,2.07,2.85,2.85,0,0,0-.56.79,10.19,10.19,0,0,1-5.56-5.64h-.16a9.61,9.61,0,0,1-1.27,1.27v3.18c1-.24,1.59-.4,2.94-.79v.79c-1.67.48-2.94.79-4.84,1.19l-.64.16-.24-1a15.62,15.62,0,0,0,1.91-.24Z"/><path class="cls-1" d="M302.3,110a8,8,0,0,0,2.22,2.38,16.42,16.42,0,0,0,3.57,2.14,1.89,1.89,0,0,0-.48.87A18,18,0,0,1,304,113a9.54,9.54,0,0,1-2.06-2.3,10.5,10.5,0,0,1-2,2.22,15.11,15.11,0,0,1-3.49,2.38,2.85,2.85,0,0,0-.56-.79,12.44,12.44,0,0,0,3.49-2.22A11.72,11.72,0,0,0,301.4,110Zm-4.37,7.55a10.13,10.13,0,0,0-1.51.08v-1a9.12,9.12,0,0,0,1.51.08h8a10.13,10.13,0,0,0,1.51-.08v1a9.12,9.12,0,0,0-1.51-.08h-4.69a17,17,0,0,1-1.59,3.18c1.83-.08,3.18-.24,5.08-.48a22.25,22.25,0,0,0-1.59-1.67l.71-.48A26.93,26.93,0,0,1,307,121.7l-.71.56a11.46,11.46,0,0,1-1-1.35c-2.3.32-4.29.56-6.35.71a10.59,10.59,0,0,0-2.22.24l-.16-1a1.55,1.55,0,0,1,.64.08c.24,0,.24,0,1.35-.08a25.16,25.16,0,0,0,1.67-3.26Zm.79-3.34a4.53,4.53,0,0,0,1,.08H304a5.24,5.24,0,0,0,1.11-.08v.87A5.24,5.24,0,0,0,304,115h-4.21a4.53,4.53,0,0,0-1,.08Z"/><path class="cls-1" d="M2.34,1.16H6.72V44.74H2.34Z"/><path class="cls-1" d="M33.31,1.16,53.67,44.74H49L42.12,30.39H23.28l-6.8,14.35H11.62L32.25,1.16Zm-.53,9.23L25.24,26.17H40.16Z"/><path class="cls-1" d="M57.26,44.74,63.43,1.16h.74L81.89,36.93,99.46,1.16h.74l6.17,43.58h-4.22L97.93,13.56,82.53,44.74H81.42L65.7,13.29,61.48,44.74Z"/><path class="cls-1" d="M131.59,1.16,151.9,44.74h-4.7l-6.86-14.35H121.53l-6.75,14.35h-4.85L130.59,1.16Zm-.53,9.23-7.53,15.78h14.93Z"/><path class="cls-1" d="M174.21,9.87c-2.37-3.11-4.43-5.33-8-5.33a5.57,5.57,0,0,0-5.9,5.22q0,.16,0,.32c0,2.37,1.37,4.85,3.9,6.75,8.18,6.07,14.19,10.23,14.19,17.3a12,12,0,0,1-12.24,11.71c-6,0-10-3.32-13.19-9.23l3.69-2.27c2.64,4.8,5.75,7.23,9.13,7.23,4.54,0,8.07-3.32,8.07-7.39,0-4.8-4.48-7.54-14.4-15.56a11.46,11.46,0,0,1-3.69-8.39c0-6,4.7-10.18,10.55-10.18,5.38,0,8.6,3.22,11.45,7.07Z"/><path class="cls-1" d="M210.46,26.75c5.07-5.54,8.07-8.87,8.07-13.61A9.19,9.19,0,0,0,209.29,4h-.15c-5.54,0-9.6,4.06-10.13,10.76h-4.17C195.1,6.28,201.22,0,209.35,0c7.91,0,13.45,5.86,13.45,13.14,0,6-3.53,10.08-8.7,15.67L203.23,40.46h20.15v4.27H193.73Z"/><path class="cls-1" d="M229.4,13.72C231.08,5,236.36.05,243.53.05c5.49,0,10.29,3.27,12.82,9.23,1.69,3.9,2.22,8.39,2.22,13.61s-.53,9.76-2.22,13.66c-2.53,6-7.33,9.28-12.82,9.28A13.06,13.06,0,0,1,232,39.08c-2.53-4.17-3.27-9.55-3.27-16.2A48.63,48.63,0,0,1,229.4,13.72Zm6,23.21a9.54,9.54,0,0,0,8.13,4.9c6.33,0,10.87-6.07,10.87-18.89S249.92,4.06,243.53,4.06a9.58,9.58,0,0,0-8.12,5.06c-2,3.32-2.48,7.91-2.48,13.82s.47,10.6,2.48,14Z"/><path class="cls-1" d="M260.53,5.38l2.64-4.27h8.6V44.68h-4.38V5.38Z"/><path class="cls-1" d="M294.12.05c7.18,0,12.41,5.33,12.41,11.5,0,4-2,7-6.12,9.28,5.28,2.69,8.18,6.07,8.18,11.39,0,6.91-5,13.56-14.82,13.56-9.55,0-14.61-6.44-14.61-13.19,0-5.59,3.17-9.13,8.44-11.76-4.38-2.27-6.49-5.64-6.49-9.39C281.15,5.38,286.74.05,294.12.05Zm-10.7,32.66c0,4.8,4,9,10.45,9s10.5-4.43,10.5-9.5c0-4.64-4.33-9.28-10.29-9.28C287.85,23,283.42,27.8,283.42,32.71Zm2.27-21.26c0,4.06,4.06,7.54,8.39,7.54a8.12,8.12,0,0,0,8.28-7.65c0-3.32-2.85-7-8.39-7-4.75,0-8.29,3.2-8.29,7.11Z"/><g id="レイヤー_3" data-name="レイヤー 3"><path class="cls-1" d="M179.83,187.24a7.65,7.65,0,0,1-1.14,1.33c.28.19.47.28.76.47a2.07,2.07,0,0,0-.38.47,15,15,0,0,1-1.42-1.14v2.75a4.62,4.62,0,0,0,.09,1.14h-.66c0-.38.09-.76.09-1.14v-2.66a5,5,0,0,1-1.33,1.14,1,1,0,0,0-.38-.47A9.58,9.58,0,0,0,177,187.9a8.12,8.12,0,0,0,1.42-2.09h-2.56v-.57a1.61,1.61,0,0,0,.95,0h.47v-.85a2.09,2.09,0,0,0-.09-.76h.66a2.09,2.09,0,0,0-.09.76v.85h1.14l.28.38c0,.09-.09.19-.19.38a7.6,7.6,0,0,1-1.23,1.8,2.52,2.52,0,0,0,.57.47,13.57,13.57,0,0,0,1-1.42Zm.57-2.28a3.56,3.56,0,0,0-1,.09v-.66c.38,0,.76.09,1,.09H184a3.85,3.85,0,0,0,0,1,39.53,39.53,0,0,1-.38,5.79c-.19.66-.38.85-1.14.85a5.41,5.41,0,0,1-1.23-.09,1.76,1.76,0,0,0-.19-.66,6.26,6.26,0,0,0,1.33.09c.47,0,.57-.09.66-.66.19-1.9.28-3.89.28-5.79h-1.8a14,14,0,0,1-.38,3.42,7.72,7.72,0,0,1-2.18,3.7,1.14,1.14,0,0,0-.47-.47,6.59,6.59,0,0,0,2.09-3.23A14,14,0,0,0,181,185Z"/><path class="cls-1" d="M186.47,185.06v-1a3.84,3.84,0,0,0,1,0h5.22V191a3.89,3.89,0,0,0,.09,1h-.66v-.57h-4.93V192h-.66c0-.38.09-.66.09-1Zm.57,2.37H192v-2.66H187Zm0,3.51H192V188H187Z"/><path class="cls-1" d="M196.81,193a6.63,6.63,0,0,1-1-2,7.8,7.8,0,0,1,1-6.93l.57.38a7.11,7.11,0,0,0-.95,1.9,7.9,7.9,0,0,0-.28,2.09,8.61,8.61,0,0,0,.28,2.18,7.11,7.11,0,0,0,.95,1.9Z"/><path class="cls-1" d="M199.28,191.51h-1a2.63,2.63,0,0,1,.28-1.23,3.52,3.52,0,0,1,1.23-1.61,13.58,13.58,0,0,1,1.42-1c.95-.66,1.23-1,1.23-1.61s-.57-1.14-1.61-1.14a1.93,1.93,0,0,0-1.42.57,1.6,1.6,0,0,0-.28,1l-.76-.09a3.33,3.33,0,0,1,.57-1.33,2.82,2.82,0,0,1,1.9-.76c1.42,0,2.37.76,2.37,1.8a1.87,1.87,0,0,1-.57,1.33,10.36,10.36,0,0,1-1.61,1.23,5,5,0,0,0-1.33,1.14,2.16,2.16,0,0,0-.57,1.14h3a4.62,4.62,0,0,0,1.14-.09v.76c-.38,0-.76-.09-1.14-.09Z"/><path class="cls-1" d="M208.29,184.3l-3.42,8.63h-.76l3.42-8.63Z"/><path class="cls-1" d="M210.09,191.51h-1a2.63,2.63,0,0,1,.28-1.23,3.52,3.52,0,0,1,1.23-1.61,13.58,13.58,0,0,1,1.42-1c.95-.66,1.23-1,1.23-1.61s-.57-1.14-1.61-1.14a1.93,1.93,0,0,0-1.42.57,1.6,1.6,0,0,0-.28,1l-.76-.09a3.33,3.33,0,0,1,.57-1.33,2.82,2.82,0,0,1,1.87-.83c1.42,0,2.37.76,2.37,1.8a1.87,1.87,0,0,1-.57,1.33,10.36,10.36,0,0,1-1.61,1.23,5,5,0,0,0-1.33,1.14,2.16,2.16,0,0,0-.57,1.14h3a4.62,4.62,0,0,0,1.14-.09v.76c-.38,0-.76-.09-1.14-.09Z"/><path class="cls-1" d="M216.26,191.51h-1a2.63,2.63,0,0,1,.28-1.23,3.52,3.52,0,0,1,1.23-1.61,13.58,13.58,0,0,1,1.42-1c.95-.66,1.23-1,1.23-1.61s-.57-1.14-1.61-1.14a1.93,1.93,0,0,0-1.42.57,1.6,1.6,0,0,0-.28,1l-.76-.09a3.33,3.33,0,0,1,.57-1.33,2.82,2.82,0,0,1,1.9-.76c1.42,0,2.37.76,2.37,1.8a1.87,1.87,0,0,1-.57,1.33,10.36,10.36,0,0,1-1.61,1.23,5,5,0,0,0-1.33,1.14,2.16,2.16,0,0,0-.57,1.14h3a4.62,4.62,0,0,0,1.14-.09v.76c-.38,0-.76-.09-1.14-.09Z"/><path class="cls-1" d="M221.76,184.19a6.63,6.63,0,0,1,1,2,8.73,8.73,0,0,1,0,4.93,6.72,6.72,0,0,1-1,2l-.57-.38a7.11,7.11,0,0,0,.95-1.9,8.09,8.09,0,0,0,.28-2.18,7.4,7.4,0,0,0-.28-2.09,7.11,7.11,0,0,0-.95-1.9Z"/><path class="cls-1" d="M228.88,189c-.57,1.23-1.14,1.8-1.8,1.8-.95,0-1.61-1-1.61-2.28a3.91,3.91,0,0,1,3.89-3.89h.26a3.58,3.58,0,0,1,2.56,1,2.94,2.94,0,0,1,.95,2.28,3.4,3.4,0,0,1-2.18,3.23,8.35,8.35,0,0,1-1.42.47c-.09-.19-.19-.47-.28-.66a5.21,5.21,0,0,0,1.61-.47,2.92,2.92,0,0,0,1.71-2.66,2.5,2.5,0,0,0-1.52-2.37,2.41,2.41,0,0,0-1.14-.19A13.28,13.28,0,0,1,228.88,189Zm-1.14-3.32a3.14,3.14,0,0,0-1.52,2.85c0,1,.38,1.61.95,1.61s.76-.47,1.14-1.33a11.2,11.2,0,0,0,.85-3.51A2.68,2.68,0,0,0,227.74,185.72Z"/><path class="cls-1" d="M235.9,184.49a3.23,3.23,0,0,0,.95.09,8.68,8.68,0,0,0,1.61-.09.57.57,0,0,0,.38-.09l.47.38a3.61,3.61,0,0,0-.47,1.42,10.31,10.31,0,0,1-.47,1.33,8,8,0,0,1,2.56.76,6.38,6.38,0,0,0,.09-1.9v-.47h.76v.57a17,17,0,0,1-.19,2.09c.47.28.85.47,1.33.76a.35.35,0,0,0,.28.09l-.28.76a12.36,12.36,0,0,0-1.42-1,3.79,3.79,0,0,1-.95,1.71,4.57,4.57,0,0,1-1.52,1.14c-.19-.19-.28-.38-.47-.47a4.33,4.33,0,0,0,1.52-1,3.33,3.33,0,0,0,.85-1.61,6.58,6.58,0,0,0-2.66-.76l-.85,2.28c-.38.66-.66,1-1.14,1A1.38,1.38,0,0,1,235,190h0a2.09,2.09,0,0,1,1.14-1.9,2.68,2.68,0,0,1,1.71-.38c.28-1,.47-1.33.76-2.37a10.33,10.33,0,0,1-1.8.09h-.66Zm0,4.08a1.52,1.52,0,0,0-.47,1c0,.47.28,1,.66,1s.76-.57,1.42-2.56a2.58,2.58,0,0,0-1.61.57Z"/><path class="cls-1" d="M247.48,184.19h2.09a9.21,9.21,0,0,0-.09,1.61v4.65a3.56,3.56,0,0,0,.09,1h-1a4.26,4.26,0,0,0,.09-1v-5.5h-.47a2.63,2.63,0,0,0-.85.09Z"/><path class="cls-1" d="M251.84,189.71a2,2,0,0,0,.57,1,1.91,1.91,0,0,0,1.23.38c1.14,0,1.8-.57,1.8-1.42s-.66-1.42-1.9-1.42h-.76v-.76c.19,0,.47.09.66.09a2,2,0,0,0,1.42-.47,1.22,1.22,0,0,0,.38-1c0-.85-.57-1.33-1.52-1.33a1.46,1.46,0,0,0-1.23.47,1,1,0,0,0-.28.66l-.76-.19a3,3,0,0,1,.47-1,2.36,2.36,0,0,1,1.9-.66c1.42,0,2.28.76,2.28,1.9a1.71,1.71,0,0,1-.66,1.42,3.37,3.37,0,0,1-.85.38,2.32,2.32,0,0,1,1.14.38,1.71,1.71,0,0,1,.66,1.42c0,1.33-1,2.09-2.56,2.09a2.52,2.52,0,0,1-2.09-.76,3,3,0,0,1-.47-1Z"/><path class="cls-1" d="M258.48,186.39h-1v-1h1Zm-1,4.17v-1h1v1Z"/><path class="cls-1" d="M260.62,190.94a2.24,2.24,0,0,1-.57-.85,5.57,5.57,0,0,1-.38-2.18,5.94,5.94,0,0,1,.57-2.56,2.59,2.59,0,0,1,3.51-.76c.09.09.28.19.38.28a2.24,2.24,0,0,1,.57.85,5.57,5.57,0,0,1,.38,2.18,4.75,4.75,0,0,1-.66,2.75,2.16,2.16,0,0,1-2,1A2,2,0,0,1,260.62,190.94Zm.47-5.69a2.88,2.88,0,0,0-.47.66,6.12,6.12,0,0,0-.28,1.9,4.92,4.92,0,0,0,.47,2.28,1.61,1.61,0,0,0,2.56.38,2.07,2.07,0,0,0,.47-.76,6.12,6.12,0,0,0,.28-1.9,4.32,4.32,0,0,0-.47-2.18,1.61,1.61,0,0,0-1.52-.85,2,2,0,0,0-1,.47Z"/><path class="cls-1" d="M266.74,190.94a2.24,2.24,0,0,1-.57-.85,5.57,5.57,0,0,1-.38-2.18,5.94,5.94,0,0,1,.57-2.56,2.59,2.59,0,0,1,3.51-.76c.09.09.28.19.38.28a2.24,2.24,0,0,1,.57.85,5.57,5.57,0,0,1,.38,2.18,4.75,4.75,0,0,1-.66,2.75,2.66,2.66,0,0,1-3.75.33l-.05,0Zm.57-5.69a2.88,2.88,0,0,0-.47.66,6.12,6.12,0,0,0-.28,1.9,4.92,4.92,0,0,0,.47,2.28,1.61,1.61,0,0,0,2.56.38,2.07,2.07,0,0,0,.47-.76,6.12,6.12,0,0,0,.28-1.9,4.32,4.32,0,0,0-.47-2.18,1.61,1.61,0,0,0-1.52-.85,1.73,1.73,0,0,0-1,.47Z"/><path class="cls-1" d="M272.62,187.43a2.58,2.58,0,0,0,.85,0h2v.76a2.58,2.58,0,0,0-.85,0h-2Z"/><path class="cls-1" d="M277.08,184.19h2.09a9.21,9.21,0,0,0-.09,1.61v4.65a3.56,3.56,0,0,0,.09,1h-1a4.26,4.26,0,0,0,.09-1v-5.5h-.47a2.63,2.63,0,0,0-.85.09Z"/><path class="cls-1" d="M285.14,188.09a1.84,1.84,0,0,1,.76,1.52c0,1.33-1,2-2.66,2s-2.66-.76-2.66-2a1.61,1.61,0,0,1,.85-1.52,1.53,1.53,0,0,1,.85-.28,1.66,1.66,0,0,1-1.42-1.71c0-1.14,1-1.9,2.37-1.9s2.37.76,2.37,1.9a1.66,1.66,0,0,1-1.42,1.71A1.6,1.6,0,0,1,285.14,188.09Zm-3.8,1.52c0,1,.66,1.42,1.9,1.42a2.09,2.09,0,0,0,1.52-.47,1.22,1.22,0,0,0,.38-1c0-1-.76-1.52-1.9-1.52S281.34,188.66,281.34,189.61Zm.28-3.51c0,.85.57,1.33,1.61,1.33s1.61-.47,1.61-1.33-.66-1.33-1.61-1.33S281.62,185.24,281.62,186.1Z"/><path class="cls-1" d="M288,186.39h-1v-1h1Zm-1,4.17v-1h1v1Z"/><path class="cls-1" d="M290,190.94a2.24,2.24,0,0,1-.57-.85,5.57,5.57,0,0,1-.38-2.18,5.94,5.94,0,0,1,.57-2.56,2.59,2.59,0,0,1,3.51-.76c.09.09.28.19.38.28a2.24,2.24,0,0,1,.57.85,5.57,5.57,0,0,1,.38,2.18,4.75,4.75,0,0,1-.66,2.75A2.66,2.66,0,0,1,290,191l-.05,0Zm.57-5.69a2.88,2.88,0,0,0-.47.66,6.12,6.12,0,0,0-.28,1.9,4.92,4.92,0,0,0,.47,2.28,1.61,1.61,0,0,0,2.56.38,2.07,2.07,0,0,0,.47-.76,6.12,6.12,0,0,0,.28-1.9,4.32,4.32,0,0,0-.47-2.18,1.61,1.61,0,0,0-1.52-.85,1.73,1.73,0,0,0-1,.47Z"/><path class="cls-1" d="M296.24,190.94a2.24,2.24,0,0,1-.57-.85,5.57,5.57,0,0,1-.38-2.18,5.94,5.94,0,0,1,.57-2.56,2.59,2.59,0,0,1,3.51-.76c.09.09.28.19.38.28a2.24,2.24,0,0,1,.57.85,5.57,5.57,0,0,1,.38,2.18,4.75,4.75,0,0,1-.66,2.75,2.16,2.16,0,0,1-2,1A2.06,2.06,0,0,1,296.24,190.94Zm.57-5.69a2.88,2.88,0,0,0-.47.66,6.12,6.12,0,0,0-.28,1.9,4.92,4.92,0,0,0,.47,2.28,1.61,1.61,0,0,0,2.56.38,2.07,2.07,0,0,0,.47-.76,6.12,6.12,0,0,0,.28-1.9,4.32,4.32,0,0,0-.47-2.18,1.61,1.61,0,0,0-1.52-.85,1.52,1.52,0,0,0-1,.47Z"/><path class="cls-1" d="M178.31,198.25h-.76v-.66a2,2,0,0,0,.76,0h1.23a2.63,2.63,0,0,0,.85-.09v.69a8.09,8.09,0,0,0,.76,3.32,7.6,7.6,0,0,0,1.42,2,6.65,6.65,0,0,0,1.8,1.42l-.57.57a9.92,9.92,0,0,1-1.8-1.61,9.71,9.71,0,0,1-1.33-2.09,6,6,0,0,1-.57-1.71,6.77,6.77,0,0,1-1.33,3,9.78,9.78,0,0,1-2.47,2.37,2.51,2.51,0,0,0-.47-.57A7,7,0,0,0,178,203a7.62,7.62,0,0,0,1.42-2.75,7.4,7.4,0,0,0,.28-2.09Z"/><path class="cls-1" d="M186.47,198.19a3.89,3.89,0,0,0-.09-1H187a3.89,3.89,0,0,0-.09,1v1.33h.95v.57h-.95v2.47a5.3,5.3,0,0,0,.76-.47v.57a20.09,20.09,0,0,1-2,1l-.47.28-.19-.66a4.77,4.77,0,0,0,1.23-.47v-2.75h-1v-.66a2.58,2.58,0,0,0,.85,0h.38Zm2.66,4.36a5.22,5.22,0,0,1-1.61,1.23,1.67,1.67,0,0,0-.38-.47,4.47,4.47,0,0,0,2.18-2h-.57a2.63,2.63,0,0,0-.85.09v-.57a2.63,2.63,0,0,0,.85.09h4.08a3.23,3.23,0,0,0,.95-.09v.57H190a1.7,1.7,0,0,1-.47.66h4.11v.57a11.94,11.94,0,0,1-.38,2.56c-.19.38-.38.47-1,.47h-.85a1.35,1.35,0,0,0-.19-.57,4.62,4.62,0,0,0,1.14.09c.38,0,.47-.09.57-.66a11.63,11.63,0,0,0,.19-1.8h-.66a4.38,4.38,0,0,1-.85,1.42,12.88,12.88,0,0,1-1.14,1.14c-.28.19-.47.38-.76.57-.09-.19-.28-.28-.47-.47a7.11,7.11,0,0,0,1.9-1.42,5.38,5.38,0,0,0,.76-1.23h-.95a6.44,6.44,0,0,1-2.66,2.37c-.09-.19-.28-.28-.38-.47a5.18,5.18,0,0,0,2.37-1.9Zm.28-2.28h-.85v-2.94a3.18,3.18,0,0,0,.95,0h3.42v2.86h-3.51Zm-.28-1.61h3.13V198h-3.13Zm0,1.14h3.13V199h-3.13Z"/><path class="cls-1" d="M196.24,198.82a5.44,5.44,0,0,1-1,1,1,1,0,0,0-.47-.38,5.45,5.45,0,0,0,1.8-2.09c.09-.19.19-.28.19-.47l.66.19-.19.19c-.19.38-.28.47-.47.85h4.84a5.84,5.84,0,0,0,1.23-.09v.66h-1v1.71h1.42V201a3.18,3.18,0,0,0-.95,0h-.47v1.71h.38a3.23,3.23,0,0,0,.95-.09v.66c-.28,0-.66-.09-.95-.09H196a2.63,2.63,0,0,0-.85.09v-.66c.28,0,.66.09.95.09h.28v-2H195v-.57a3.18,3.18,0,0,0,.95,0h.47Zm-1.33,6.37a4.71,4.71,0,0,0,1.23-1.8l.47.28a5.93,5.93,0,0,1-1.23,1.9Zm1.9-4.93h1.14v-1.71h-1.14Zm0,2.28h1.14v-1.71h-1.14Zm.95,3a14.15,14.15,0,0,0-.19-2l.57-.09a7.22,7.22,0,0,1,.28,2Zm1.8-5.31v-1.71h-1.14v1.67Zm0,2.28V200.8h-1.14v1.71Zm.38,3a11.09,11.09,0,0,0-.47-1.9l.47-.19a6.3,6.3,0,0,1,.57,1.9Zm1.33-5.31v-1.71h-1.14v1.7Zm0,2.28v-1.71h-1.14v1.71Zm1.33,2.94a7.76,7.76,0,0,0-1.14-1.9l.47-.28a12.08,12.08,0,0,1,1.23,1.8Z"/><path class="cls-1" d="M205.26,200.9h-.85v-.57H206V198a3.89,3.89,0,0,0-.09-1h.69c0,.38-.09.66-.09,1v2.28h1.23v.57h-1.23a8,8,0,0,0,1.33,1.8c-.09.19-.28.28-.28.47a5.38,5.38,0,0,1-1.14-1.71v3.23a3.89,3.89,0,0,0,.09,1h-.66c0-.38.09-.66.09-1v-3a7.62,7.62,0,0,1-1.42,2.75,2,2,0,0,0-.38-.57,6.23,6.23,0,0,0,1.14-1.61c.19-.38.38-.85.57-1.23Zm-.28-3.23a16.35,16.35,0,0,1,.66,2l-.47.19a7,7,0,0,0-.66-2Zm3.13.19a13.55,13.55,0,0,1-.76,2.09l-.47-.19a5.39,5.39,0,0,0,.66-2.09Zm3,.28a2.93,2.93,0,0,0-.09-1h.76c0,.28-.09.66-.09,1v4.36h.19l.85-.28.09.66a3.37,3.37,0,0,0-.95.19l-.19.09v1.52a3.89,3.89,0,0,0,.09,1H211a3.89,3.89,0,0,0,.09-1v-1.42l-2.47.57-.85.28-.09-.66a3.37,3.37,0,0,0,.95-.19l2.56-.57v-4.5Zm-2.47,2a6.21,6.21,0,0,1,1.71,1.42L210,202a6.21,6.21,0,0,0-1.71-1.42Zm.28-2.37a6.55,6.55,0,0,1,1.7,1.52l-.38.47a6.55,6.55,0,0,0-1.71-1.52Z"/><path class="cls-1" d="M220.34,197h.47v8.63h-.47Z"/><path class="cls-1" d="M233.91,204.89c-.09-.28-.19-.66-.28-1l-.47-1.23h-3.32l-.47,1.23c-.09.28-.19.66-.28,1h-.95a5.08,5.08,0,0,0,.47-1l2.09-5.22.28-.85h.95l.28.85,2.09,5.22q.21.51.47,1Zm-2.28-6-.19-.57-.09.28a.73.73,0,0,0-.09.28L230,202h2.85Z"/><path class="cls-1" d="M239.7,204.41v-.47a2.19,2.19,0,0,1-1.9,1,2.67,2.67,0,0,1,0-5.31,2.19,2.19,0,0,1,1.9,1v-1.9a3.56,3.56,0,0,0-.09-1h.85c0,.38-.09.76-.09,1v5a3.56,3.56,0,0,0,.09,1h-.76Zm-3.51-2.09a2.78,2.78,0,0,0,.38,1.52,1.53,1.53,0,0,0,1.23.57,1.74,1.74,0,0,0,1.8-1.68s0-.08,0-.12v-.28a2.33,2.33,0,0,0-.57-1.52,2.27,2.27,0,0,0-1.33-.47c-.85,0-1.51.75-1.51,2Z"/><path class="cls-1" d="M241.78,204.89a4.26,4.26,0,0,0,.09-1v-2.94a3.56,3.56,0,0,0-.09-1h.76v.85a1,1,0,0,1,.38-.47,1.78,1.78,0,0,1,1.33-.47,1.8,1.8,0,0,1,1.23.47.82.82,0,0,1,.28.57,2,2,0,0,1,1.71-1,1.93,1.93,0,0,1,1.42.57,1.44,1.44,0,0,1,.28,1.23v2.37a3.89,3.89,0,0,0,.09,1h-.85a4.26,4.26,0,0,0,.09-1v-2.28c0-.85-.28-1.33-1.14-1.33a1.32,1.32,0,0,0-1.14.66,1.6,1.6,0,0,0-.28,1V204a3.89,3.89,0,0,0,.09,1h-.85a4.26,4.26,0,0,0,.09-1v-2.28c0-.85-.38-1.33-1-1.33a1.48,1.48,0,0,0-1.23.76,1.6,1.6,0,0,0-.28,1V204a3.56,3.56,0,0,0,.09,1Z"/><path class="cls-1" d="M251.56,197.68v.85h-.94v-.85Zm0,2.09a4.26,4.26,0,0,0-.09,1v2.94a3.56,3.56,0,0,0,.09,1h-.85c0-.38.09-.76.09-1v-2.94a3.56,3.56,0,0,0-.09-1Z"/><path class="cls-1" d="M253.36,203.37a.86.86,0,0,0,.28.66,1.51,1.51,0,0,0,1.14.38c.85,0,1.33-.38,1.33-1a.68.68,0,0,0-.28-.57,5.35,5.35,0,0,0-1.14-.38,4.2,4.2,0,0,1-1.42-.47,1,1,0,0,1-.47-1,1.69,1.69,0,0,1,.38-1,2.09,2.09,0,0,1,1.52-.47,2.23,2.23,0,0,1,1.52.47,1.13,1.13,0,0,1,.47.85l-.76.09a.72.72,0,0,0-.19-.47,1.22,1.22,0,0,0-1-.38c-.66,0-1.14.38-1.14.85a.52.52,0,0,0,.28.47,1.91,1.91,0,0,0,1,.28,4.19,4.19,0,0,1,1.52.57,1.17,1.17,0,0,1,.47,1c0,1-.76,1.52-2.09,1.52a2.06,2.06,0,0,1-1.9-.76,1.08,1.08,0,0,1-.28-.76Z"/><path class="cls-1" d="M258.48,203.37a.86.86,0,0,0,.28.66,1.51,1.51,0,0,0,1.14.38c.85,0,1.33-.38,1.33-1a.68.68,0,0,0-.28-.57,5.35,5.35,0,0,0-1.14-.38,4.2,4.2,0,0,1-1.42-.47,1,1,0,0,1-.47-1,1.69,1.69,0,0,1,.38-1,2.09,2.09,0,0,1,1.52-.47,2.23,2.23,0,0,1,1.52.47,1.13,1.13,0,0,1,.47.85l-.76.09a.72.72,0,0,0-.19-.47,1.22,1.22,0,0,0-1-.38c-.66,0-1.14.38-1.14.85a.52.52,0,0,0,.28.47,1.91,1.91,0,0,0,1,.28,4.19,4.19,0,0,1,1.52.57,1.17,1.17,0,0,1,.47,1c0,1-.76,1.52-2.09,1.52a2.06,2.06,0,0,1-1.9-.76,1.08,1.08,0,0,1-.28-.76Z"/><path class="cls-1" d="M264,197.68v.85h-1v-.85Zm0,2.09a4.26,4.26,0,0,0-.09,1v2.94a3.56,3.56,0,0,0,.09,1h-.85c0-.38.09-.76.09-1v-2.94a3.56,3.56,0,0,0-.09-1Z"/><path class="cls-1" d="M265.12,202.33a2.5,2.5,0,1,1,2.44,2.65A2.43,2.43,0,0,1,265,202.7C265.12,202.61,265.12,202.52,265.12,202.33Zm.76,0c0,1.33.66,2.09,1.8,2.09s1.8-.76,1.8-2.09-.66-2.09-1.8-2.09S265.88,201,265.88,202.33Z"/><path class="cls-1" d="M271.29,204.89a4.26,4.26,0,0,0,.09-1v-2.94a3.56,3.56,0,0,0-.09-1H272v1a2.09,2.09,0,0,1,1.9-1.14,1.73,1.73,0,0,1,1.52.76,1.91,1.91,0,0,1,.28,1v2.37a3.89,3.89,0,0,0,.09,1H275c0-.38.09-.76.09-1v-2.18c0-.85-.38-1.33-1.14-1.33a1.51,1.51,0,0,0-1.32.76,3,3,0,0,0-.47,1v1.8a3.56,3.56,0,0,0,.09,1Z"/><path class="cls-1" d="M281.16,203.75a4.62,4.62,0,0,0,.09,1.14h-1a4.62,4.62,0,0,0,.09-1.14v-5a3.56,3.56,0,0,0-.09-1h3.61a3.56,3.56,0,0,0,1-.09v.85a4.25,4.25,0,0,0-1-.09h-2.75v2.47h2.18a3.56,3.56,0,0,0,1-.09v.76a4.25,4.25,0,0,0-1-.09h-2.18v2.28Z"/><path class="cls-1" d="M289.13,200.52a2.09,2.09,0,0,0-.76-.09,1.35,1.35,0,0,0-1.14.57,1.69,1.69,0,0,0-.38,1v1.9a3.89,3.89,0,0,0,.09,1h-.85c0-.38.09-.76.09-1v-3a3.56,3.56,0,0,0-.09-1h.76v.85a1.39,1.39,0,0,1,.47-.57,1.71,1.71,0,0,1,1.14-.28,2.63,2.63,0,0,1,.85.09Z"/><path class="cls-1" d="M290.55,202.42a2.18,2.18,0,0,0,.38,1.33,1.81,1.81,0,0,0,1.33.66,1.44,1.44,0,0,0,1.52-1.14l.66.28a2.07,2.07,0,0,1-.47.76,2.29,2.29,0,0,1-1.71.66,2.49,2.49,0,0,1-2.47-2.37v-.41a2.38,2.38,0,0,1,2.08-2.64l.29,0a2.27,2.27,0,0,1,2.28,2.09,2.67,2.67,0,0,0,.09.76Zm3.23-.57a1.62,1.62,0,0,0-1.61-1.61,1.34,1.34,0,0,0-1.33.85,2.23,2.23,0,0,0-.19.76Z"/><path class="cls-1" d="M296.15,202.42a2.18,2.18,0,0,0,.38,1.33,1.81,1.81,0,0,0,1.33.66,1.44,1.44,0,0,0,1.52-1.14l.66.28a2.07,2.07,0,0,1-.47.76,2.29,2.29,0,0,1-1.71.66,2.49,2.49,0,0,1-2.47-2.37v-.41a2.38,2.38,0,0,1,2.08-2.64l.29,0a2.27,2.27,0,0,1,2.28,2.09,2.67,2.67,0,0,0,.09.76Zm3.23-.57a1.62,1.62,0,0,0-1.61-1.61,1.34,1.34,0,0,0-1.33.85,2.23,2.23,0,0,0-.19.76Z"/><path class="cls-1" d="M29.71,161.77c2.47-2.56,4-4.55,4-6.64A2.92,2.92,0,0,0,31,152.19h-.14c-1.8,0-2.94,1.52-3,3.7H23.93c.19-4.84,3.13-7.5,7.21-7.5a6.38,6.38,0,0,1,6.55,6.21v.33c0,3.13-1.9,6.07-4.93,9.39l-2.37,2.56h7.5v3.8H23.36v-2Z"/><path class="cls-1" d="M57.05,159.78c0,7.59-2.37,11.39-7.31,11.39a6.65,6.65,0,0,1-5.41-2.47c-1.61-2.09-2.09-4.84-2.09-8.63,0-4.17.57-7.12,2.18-9.11a6.38,6.38,0,0,1,5.12-2.47C54.68,148.39,57.05,152.19,57.05,159.78Zm-10.63.3c0,4.84,1,7.21,3.42,7.21s3.32-2.47,3.32-7.5-1.14-7.5-3.42-7.5c-2.56.09-3.32,2.66-3.32,7.78Z"/><path class="cls-1" d="M62.94,149h6v21.63h-4V152.85H60.58Z"/><path class="cls-1" d="M82.4,148.39a6,6,0,0,1,6.26,5.69v.38a5.75,5.75,0,0,1-2,4.36,6.35,6.35,0,0,1,2.94,5.6c0,3.7-2.47,6.74-7.21,6.74a7.86,7.86,0,0,1-3.32-.47,6.16,6.16,0,0,1-4-6.17,6.56,6.56,0,0,1,2.94-5.6,6,6,0,0,1-1.9-4.46,5.88,5.88,0,0,1,6.29-6.07ZM79,164.14a3.16,3.16,0,0,0,3.13,3.13h.19c2,0,3.32-1.14,3.32-3A3.2,3.2,0,0,0,82.45,161H82.3A3.26,3.26,0,0,0,79,164.14Zm.95-9.39a2.33,2.33,0,0,0,2.18,2.47h.09a2.42,2.42,0,0,0-.09-4.84h0a2.23,2.23,0,0,0-2.18,2.28h0C80,154.66,80,154.75,79.93,154.75Z"/><path class="cls-1" d="M100.48,168.69A2.23,2.23,0,0,1,98.3,171h0A2.33,2.33,0,0,1,96,168.6a2.23,2.23,0,0,1,4.46-.28v.38Z"/><path class="cls-1" d="M112.4,161.77c2.47-2.56,3.89-4.55,3.89-6.64a2.92,2.92,0,0,0-2.75-2.94h-.09c-1.71,0-2.94,1.52-3,3.7h-3.93c.19-4.84,3.13-7.5,7.21-7.5a6.38,6.38,0,0,1,6.55,6.21v.33c0,3.13-1.9,6.07-4.93,9.39L113,166.79h7.5v3.8H106v-2Z"/><path class="cls-1" d="M131,168.69a2.38,2.38,0,0,1-2.14,2.39h0a2.33,2.33,0,0,1-2.28-2.37,2.23,2.23,0,0,1,4.46-.28v.28Z"/><path class="cls-1" d="M143,161.77c2.47-2.56,3.89-4.55,3.89-6.64a2.92,2.92,0,0,0-2.75-2.94H144c-1.8,0-2.94,1.52-3,3.7h-3.89c.19-4.84,3.13-7.5,7.21-7.5a6.38,6.38,0,0,1,6.55,6.21v.33c0,3.13-1.9,6.07-4.93,9.39l-2.37,2.56h7.5v3.8H136.52v-2Z"/><path class="cls-1" d="M162,161.77c2.47-2.56,4-4.55,4-6.64a2.92,2.92,0,0,0-2.75-2.94h-.09c-1.8,0-2.94,1.52-3,3.7h-3.89c.19-4.84,3.13-7.5,7.21-7.5A6.38,6.38,0,0,1,170,154.6v.33c0,3.13-1.9,6.07-4.93,9.39l-2.37,2.56h7.5v3.8H155.6v-2Z"/><path class="cls-1" d="M196.76,158.73h14.42v2H196.76Z"/><path class="cls-1" d="M228,161.77c2.37-2.56,4-4.55,4-6.64a2.92,2.92,0,0,0-2.75-2.94h-.09c-1.8,0-2.94,1.52-3,3.7h-4c.19-4.84,3.13-7.5,7.21-7.5a6.38,6.38,0,0,1,6.55,6.21v.33c0,3.13-1.9,6.07-4.93,9.39l-2.37,2.56h7.5v3.8H221.54v-2Z"/><path class="cls-1" d="M246.64,168.69a2.23,2.23,0,0,1-2.18,2.28h0a2.33,2.33,0,0,1-2.28-2.37,2.23,2.23,0,1,1,4.46-.28Z"/><path class="cls-1" d="M258.56,161.77c2.47-2.56,4-4.55,4-6.64a2.92,2.92,0,0,0-2.75-2.94h-.09c-1.8,0-2.94,1.52-3,3.7h-3.9c.19-4.84,3.13-7.5,7.21-7.5a6.44,6.44,0,0,1,6.55,6.26v.19c0,3.13-1.9,6.07-4.93,9.39l-2.37,2.56h7.5v3.8H252.2v-2Z"/><path class="cls-1" d="M274.7,149h9.77v3.8h-6.83l-.85,3.89a3.23,3.23,0,0,1,1.33-.19c3.89,0,6.64,3,6.64,7.21a7.35,7.35,0,0,1-7,7.5h-.19a7,7,0,0,1-7.12-5.88h4.17a3.24,3.24,0,0,0,6.2-1.21v-.19a3,3,0,0,0-2.65-3.31h-.29a3.15,3.15,0,0,0-2.56,1.33l-3.23-.76Z"/><path class="cls-1" d="M9.41,184.39h6V206h-4V188.28H7.13Z"/><path class="cls-1" d="M33.62,195.19c0,7.59-2.37,11.39-7.31,11.39a6.65,6.65,0,0,1-5.41-2.47c-1.61-2.09-2-4.84-2-8.63,0-4.17.57-7.12,2.18-9.11a6.38,6.38,0,0,1,5.12-2.47C31.23,183.82,33.62,187.62,33.62,195.19ZM23,195.47c0,4.84,1,7.21,3.42,7.21s3.31-2.49,3.31-7.49-1.14-7.5-3.42-7.5c-2.56.12-3.32,2.68-3.32,7.8Z"/><path class="cls-1" d="M41.95,189.8a2.23,2.23,0,0,1-4.46.28h0v-.28a2.23,2.23,0,0,1,4.46-.28Zm0,12.24a2.23,2.23,0,0,1-2.18,2.28h0a2.33,2.33,0,0,1-2.28-2.37,2.23,2.23,0,0,1,4.46-.28Z"/><path class="cls-1" d="M60.46,195.19c0,7.59-2.37,11.39-7.31,11.39a6.65,6.65,0,0,1-5.41-2.47c-1.61-2.09-2-4.84-2-8.63,0-4.17.57-7.12,2.18-9.11A6.38,6.38,0,0,1,53,183.9C58.08,183.82,60.46,187.62,60.46,195.19Zm-10.63.28c0,4.84,1,7.21,3.42,7.21s3.32-2.47,3.32-7.5-1.14-7.5-3.42-7.5c-2.53.13-3.32,2.69-3.32,7.81Z"/><path class="cls-1" d="M77.44,195.19c0,7.59-2.37,11.39-7.31,11.39a6.65,6.65,0,0,1-5.41-2.47c-1.61-2.09-2-4.84-2-8.63,0-4.17.57-7.12,2.18-9.11A6.38,6.38,0,0,1,70,183.9C75.07,183.82,77.44,187.62,77.44,195.19Zm-10.63.28c0,4.84,1,7.21,3.42,7.21s3.32-2.47,3.32-7.5-1.14-7.5-3.42-7.5c-2.51.13-3.32,2.69-3.32,7.81Z"/><path class="cls-1" d="M82.42,194.19H96.84v2H82.42Z"/><path class="cls-1" d="M102.43,184.39h6.07V206h-4V188.28h-4.27Z"/><path class="cls-1" d="M118.75,183.82a6,6,0,0,1,6.26,5.69v.38a5.75,5.75,0,0,1-2,4.36,6.35,6.35,0,0,1,2.94,5.6c0,3.7-2.47,6.74-7.21,6.74a7.86,7.86,0,0,1-3.32-.47,6.16,6.16,0,0,1-4-6.17,6.48,6.48,0,0,1,2.85-5.6,6.11,6.11,0,0,1,4.46-10.53Zm-3.42,15.75a3.16,3.16,0,0,0,3.13,3.13h.16c2,0,3.32-1.14,3.32-3a3.2,3.2,0,0,0-3.17-3.23h-.15A3.26,3.26,0,0,0,115.33,199.57Zm.95-9.39a2.34,2.34,0,0,0,2.18,2.47h.09a2.42,2.42,0,0,0-.09-4.84h0a2.23,2.23,0,0,0-2.18,2.28h0C116.37,190.09,116.37,190.18,116.28,190.18Z"/><path class="cls-1" d="M134.4,189.8a2.23,2.23,0,0,1-4.46.28h0v-.28a2.23,2.23,0,0,1,4.46-.28Zm0,12.24a2.23,2.23,0,0,1-2.18,2.28h0a2.33,2.33,0,0,1-2.28-2.37,2.23,2.23,0,0,1,4.46-.28Z"/><path class="cls-1" d="M152.9,195.19c0,7.59-2.37,11.39-7.31,11.39a6.65,6.65,0,0,1-5.41-2.47c-1.61-2.09-2.09-4.84-2.09-8.63,0-4.17.57-7.12,2.18-9.11a6.38,6.38,0,0,1,5.12-2.47C150.53,183.82,152.9,187.62,152.9,195.19Zm-10.63.28c0,4.84,1,7.21,3.42,7.21s3.32-2.47,3.32-7.5-1.14-7.5-3.42-7.5c-2.56.09-3.32,2.66-3.32,7.78Z"/><path class="cls-1" d="M169.89,195.19c0,7.59-2.37,11.39-7.31,11.39a6.65,6.65,0,0,1-5.41-2.47c-1.61-2.09-2.09-4.84-2.09-8.63,0-4.17.57-7.12,2.18-9.11a6.38,6.38,0,0,1,5.12-2.47C167.52,183.82,169.89,187.62,169.89,195.19Zm-10.63.28c0,4.84,1,7.21,3.42,7.21s3.32-2.47,3.32-7.5-1.14-7.5-3.42-7.5c-2.56.13-3.32,2.69-3.32,7.81Z"/><path class="cls-1" d="M185.21,148.3v5.41h-1.9v-1.8h-8.16V150h8.16V148.3Z"/><path class="cls-1" d="M185.21,155.22v1.86h-3.8v3.32h3.8v1.9H175.15v-1.9h4.36v-3.32h-4.36v-1.9Z"/><path class="cls-1" d="M185.21,164.08V166h-6.83c-1,0-1.61.47-1.61,1.42a1.53,1.53,0,0,0,.57,1.23,2.09,2.09,0,0,0,1.33.19h6.55v1.9h-6.45a4.32,4.32,0,0,1-2.85-.76,2.83,2.83,0,0,1-1-2.47,2.73,2.73,0,0,1,.9-2.41,4,4,0,0,1,3-.85Z"/><path class="cls-1" d="M293.06,149.91c-.85.47-1.33.95-1.33,1.61a1,1,0,0,0,1,1.14,1.45,1.45,0,0,0,1.14-.66c1.8-2,2.75-3.23,4.17-3.23a2.63,2.63,0,0,1,2.56,2.66h0a3.57,3.57,0,0,1-1.61,2.85l-1.23-1.42c.66-.47,1-.95,1-1.42a.82.82,0,0,0-.66-.85h0a1.45,1.45,0,0,0-1,.57c-1.61,1.8-2.47,3.23-4.27,3.23A2.77,2.77,0,0,1,290,151.7v-.34a3.28,3.28,0,0,1,2.18-3.13Z"/><path class="cls-1" d="M300.27,155.41v1.9h-6.83q-1.71,0-1.71,1.42a1.53,1.53,0,0,0,.57,1.23,2.09,2.09,0,0,0,1.33.19h6.55v1.93h-6.46a4.32,4.32,0,0,1-2.85-.76,3,3,0,0,1-1-2.56,2.73,2.73,0,0,1,1-2.37,4,4,0,0,1,3-.85Z"/><path class="cls-1" d="M300.27,163.57v1.71l-6.64,3.89h6.64v1.71H290.21v-1.71l6.61-3.89h-6.64v-1.8Z"/></g></g></g></g></g></g></g></svg>